<?xml version="1.0" standalone="no"?>
<!DOCTYPE svg PUBLIC "-//W3C//DTD SVG 20010904//EN"
 "http://www.w3.org/TR/2001/REC-SVG-20010904/DTD/svg10.dtd">
<svg version="1.0" xmlns="http://www.w3.org/2000/svg"
 width="705.000000pt" height="506.000000pt" viewBox="0 0 705.000000 506.000000"
 preserveAspectRatio="xMidYMid meet">

<g transform="translate(0.000000,506.000000) scale(0.100000,-0.100000)"
fill="#000000" stroke="none">
<path d="M0 2530 l0 -2530 3525 0 3525 0 0 2530 0 2530 -3525 0 -3525 0 0
-2530z m980 2436 c0 -26 5 -46 13 -49 7 -3 5 -6 -5 -6 -15 -1 -18 7 -18 43 0
34 -4 46 -17 49 -14 4 -12 5 5 6 20 1 22 -4 22 -43z m212 -7 c-1 -22 -3 -44
-6 -47 -3 -3 -6 19 -6 48 0 29 3 51 6 47 4 -3 6 -25 6 -48z m448 2 c0 -46 -1
-48 -27 -47 -18 1 -29 7 -31 19 -4 20 14 47 31 47 6 0 2 -6 -8 -14 -12 -8 -16
-19 -12 -30 12 -30 32 -11 35 32 4 57 12 53 12 -7z m870 37 c-24 -10 -24 -10
-5 -18 17 -7 17 -9 3 -9 -13 -1 -18 -10 -19 -33 l-2 -33 -6 35 c-8 38 10 70
38 69 10 0 6 -4 -9 -11z m627 -18 c-9 -23 -8 -38 1 -62 10 -30 10 -31 -3 -14
-17 23 -19 59 -5 87 16 29 20 23 7 -11z m162 -9 c-2 -6 -10 2 -17 17 -11 25
-11 25 4 10 9 -9 15 -21 13 -27z m-2709 6 c12 -4 11 -6 -2 -6 -23 -1 -25 -47
-3 -54 11 -4 10 -4 -2 -3 -12 1 -19 11 -21 29 -2 15 -8 27 -13 27 -5 0 -4 6 3
14 7 8 15 10 18 6 3 -4 12 -10 20 -13z m160 0 c12 -4 11 -6 -2 -6 -23 -1 -25
-47 -3 -54 11 -4 10 -4 -2 -3 -12 1 -19 11 -21 29 -2 15 -8 27 -13 27 -5 0 -4
6 3 14 7 8 15 10 18 6 3 -4 12 -10 20 -13z m1040 0 c12 -4 11 -6 -2 -6 -23 -1
-25 -47 -3 -54 11 -4 10 -4 -2 -3 -12 1 -19 11 -21 29 -2 15 -8 27 -13 27 -5
0 -4 6 3 14 7 8 15 10 18 6 3 -4 12 -10 20 -13z m1040 0 c12 -4 11 -6 -2 -6
-23 -1 -25 -47 -3 -54 11 -4 10 -4 -2 -3 -12 1 -19 11 -21 29 -2 15 -8 27 -13
27 -5 0 -4 6 3 14 7 8 15 10 18 6 3 -4 12 -10 20 -13z m390 -16 c0 -22 5 -42
13 -44 6 -3 -1 -6 -18 -6 -21 0 -26 2 -16 8 9 6 12 21 9 45 -2 20 0 36 4 36 4
0 8 -18 8 -39z m-3107 1 c3 -4 -7 -16 -22 -26 l-26 -20 19 22 c19 22 19 23 0
38 -18 14 -18 15 3 4 12 -5 24 -13 26 -18z m80 0 c3 -4 -7 -16 -22 -26 l-26
-20 19 22 c19 22 19 23 0 38 -18 14 -18 15 3 4 12 -5 24 -13 26 -18z m80 0 c3
-4 -7 -16 -22 -26 l-26 -20 19 22 c19 22 19 23 0 38 -18 14 -18 15 3 4 12 -5
24 -13 26 -18z m139 7 c-30 -12 -25 -41 8 -51 l25 -7 -24 2 c-48 4 -50 68 -2
66 10 0 8 -3 -7 -10z m104 -29 c2 -34 1 -34 -3 -3 -2 18 -11 34 -21 37 -12 3
-11 4 3 3 16 -2 20 -10 21 -37z m320 0 c2 -34 1 -34 -3 -3 -2 18 -11 34 -21
37 -12 3 -11 4 3 3 16 -2 20 -10 21 -37z m57 33 c-7 -2 -19 -2 -25 0 -7 3 -2
5 12 5 14 0 19 -2 13 -5z m245 0 c-24 -6 -23 -19 3 -26 27 -7 20 -32 -9 -33
-20 -2 -20 -1 -2 3 26 6 26 19 0 26 -28 7 -26 37 3 36 16 -1 18 -2 5 -6z m98
-34 c2 -31 1 -31 -3 -4 -3 16 -10 34 -16 38 -8 6 -7 7 3 4 9 -2 16 -17 16 -38z
m80 1 c2 -34 1 -34 -3 -3 -2 18 -11 34 -21 37 -12 3 -11 4 3 3 16 -2 20 -10
21 -37z m79 5 c0 -23 -5 -31 -22 -33 -12 -2 -24 -11 -26 -20 -3 -9 -5 6 -6 34
-1 49 0 51 27 50 23 -1 27 -5 27 -31z m83 13 c2 -12 -5 -18 -25 -20 l-28 -4
25 -12 c17 -8 19 -11 6 -9 -28 3 -43 32 -26 52 16 19 44 16 48 -7z m240 0 c2
-12 -5 -18 -25 -20 l-28 -4 25 -12 c17 -8 19 -11 6 -9 -28 3 -43 32 -26 52 16
19 44 16 48 -7z m160 0 c2 -12 -5 -18 -25 -20 l-28 -4 25 -12 c17 -8 19 -11 6
-9 -28 3 -43 32 -26 52 16 19 44 16 48 -7z m44 -18 c-6 -41 -12 -38 -12 6 0
19 4 33 8 30 5 -3 7 -19 4 -36z m124 0 l2 -35 -5 33 c-2 17 -8 32 -14 32 -5 0
-10 -15 -11 -32 l-1 -33 -4 33 c-2 17 -8 32 -13 32 -5 0 -11 -15 -13 -32 -4
-33 -4 -33 -5 4 -2 37 -1 38 31 35 29 -2 32 -5 33 -37z m47 33 c-7 -2 -19 -2
-25 0 -7 3 -2 5 12 5 14 0 19 -2 13 -5z m59 -33 c-6 -41 -12 -38 -12 6 0 19 4
33 8 30 5 -3 7 -19 4 -36z m44 -1 c2 -31 1 -31 -3 -4 -3 16 -10 34 -16 38 -8
6 -7 7 3 4 9 -2 16 -17 16 -38z m82 19 c2 -12 -5 -18 -25 -20 l-28 -4 25 -12
c17 -8 19 -11 6 -9 -28 3 -43 32 -26 52 16 19 44 16 48 -7z m44 -18 c-6 -41
-12 -38 -12 6 0 19 4 33 8 30 5 -3 7 -19 4 -36z m248 -15 c8 0 18 13 21 30 7
30 7 30 8 -6 1 -33 -1 -36 -26 -35 -25 1 -28 5 -30 36 -1 34 -1 34 5 5 4 -17
14 -30 22 -30z m62 15 c-6 -41 -12 -38 -12 6 0 19 4 33 8 30 5 -3 7 -19 4 -36z
m44 -1 c2 -31 1 -31 -3 -4 -3 16 -10 34 -16 38 -8 6 -7 7 3 4 9 -2 16 -17 16
-38z m56 30 c-30 -12 -25 -41 8 -51 l25 -7 -24 2 c-48 4 -50 68 -2 66 10 0 8
-3 -7 -10z m161 4 c-7 -2 -19 -2 -25 0 -7 3 -2 5 12 5 14 0 19 -2 13 -5z m102
-28 c0 -23 -5 -30 -19 -30 -28 0 -43 29 -26 50 21 25 45 14 45 -20z m37 -5
c-6 -41 -12 -38 -12 6 0 19 4 33 8 30 5 -3 7 -19 4 -36z m44 -1 c2 -31 1 -31
-3 -4 -3 16 -10 34 -16 38 -8 6 -7 7 3 4 9 -2 16 -17 16 -38z m-2593 4 c-18
-7 -16 -21 5 -26 15 -4 15 -5 0 -6 -9 0 -20 4 -23 9 -8 13 3 30 18 29 9 0 9
-2 0 -6z m320 0 c-18 -7 -16 -21 5 -26 15 -4 15 -5 0 -6 -9 0 -20 4 -23 9 -8
13 3 30 18 29 9 0 9 -2 0 -6z m480 0 c-18 -7 -16 -21 5 -26 15 -4 15 -5 0 -6
-9 0 -20 4 -23 9 -8 13 3 30 18 29 9 0 9 -2 0 -6z m2003 -41 c-15 -15 -15 -15
-4 10 7 15 15 23 17 17 2 -6 -4 -18 -13 -27z m-2618 -9 c-10 -2 -26 -2 -35 0
-10 3 -2 5 17 5 19 0 27 -2 18 -5z m400 0 c-10 -2 -26 -2 -35 0 -10 3 -2 5 17
5 19 0 27 -2 18 -5z m480 0 c-10 -2 -26 -2 -35 0 -10 3 -2 5 17 5 19 0 27 -2
18 -5z m880 0 c-10 -2 -26 -2 -35 0 -10 3 -2 5 17 5 19 0 27 -2 18 -5z m-240
-200 c-10 -2 -26 -2 -35 0 -10 3 -2 5 17 5 19 0 27 -2 18 -5z m80 0 c-10 -2
-26 -2 -35 0 -10 3 -2 5 17 5 19 0 27 -2 18 -5z m80 0 c-10 -2 -26 -2 -35 0
-10 3 -2 5 17 5 19 0 27 -2 18 -5z m80 0 c-10 -2 -26 -2 -35 0 -10 3 -2 5 17
5 19 0 27 -2 18 -5z m80 0 c-10 -2 -26 -2 -35 0 -10 3 -2 5 17 5 19 0 27 -2
18 -5z m80 0 c-10 -2 -26 -2 -35 0 -10 3 -2 5 17 5 19 0 27 -2 18 -5z m80 0
c-10 -2 -26 -2 -35 0 -10 3 -2 5 17 5 19 0 27 -2 18 -5z m80 0 c-10 -2 -26 -2
-35 0 -10 3 -2 5 17 5 19 0 27 -2 18 -5z m80 0 c-10 -2 -26 -2 -35 0 -10 3 -2
5 17 5 19 0 27 -2 18 -5z m800 0 c-10 -2 -26 -2 -35 0 -10 3 -2 5 17 5 19 0
27 -2 18 -5z m80 0 c-10 -2 -26 -2 -35 0 -10 3 -2 5 17 5 19 0 27 -2 18 -5z
m1040 0 c-10 -2 -26 -2 -35 0 -10 3 -2 5 17 5 19 0 27 -2 18 -5z m80 0 c-10
-2 -26 -2 -35 0 -10 3 -2 5 17 5 19 0 27 -2 18 -5z m80 0 c-10 -2 -26 -2 -35
0 -10 3 -2 5 17 5 19 0 27 -2 18 -5z m80 0 c-10 -2 -26 -2 -35 0 -10 3 -2 5
17 5 19 0 27 -2 18 -5z m80 0 c-10 -2 -26 -2 -35 0 -10 3 -2 5 17 5 19 0 27
-2 18 -5z m-1291 -190 c-2 -21 -4 -4 -4 37 0 41 2 58 4 38 2 -21 2 -55 0 -75z
m-3303 55 c-9 -59 -14 -60 -14 -5 0 26 5 47 10 47 6 0 8 -16 4 -42z m45 -5
c-1 -47 -1 -47 -9 -14 -7 31 -4 61 6 61 2 0 4 -21 3 -47z m35 5 c-9 -59 -14
-60 -14 -5 0 26 5 47 10 47 6 0 8 -16 4 -42z m45 -5 c-1 -47 -1 -47 -9 -14 -7
31 -4 61 6 61 2 0 4 -21 3 -47z m35 5 c-9 -59 -14 -60 -14 -5 0 26 5 47 10 47
6 0 8 -16 4 -42z m45 -5 c-1 -47 -1 -47 -9 -14 -7 31 -4 61 6 61 2 0 4 -21 3
-47z m1075 5 c-9 -59 -14 -60 -14 -5 0 26 5 47 10 47 6 0 8 -16 4 -42z m45 -5
c-1 -47 -1 -47 -9 -14 -7 31 -4 61 6 61 2 0 4 -21 3 -47z m35 5 c-9 -59 -14
-60 -14 -5 0 26 5 47 10 47 6 0 8 -16 4 -42z m45 -5 c-1 -47 -1 -47 -9 -14 -7
31 -4 61 6 61 2 0 4 -21 3 -47z m35 5 c-9 -59 -14 -60 -14 -5 0 26 5 47 10 47
6 0 8 -16 4 -42z m45 -5 c-1 -47 -1 -47 -9 -14 -7 31 -4 61 6 61 2 0 4 -21 3
-47z m211 12 c0 -5 -5 -3 -10 5 -5 8 -10 20 -10 25 0 6 5 3 10 -5 5 -8 10 -19
10 -25z m720 0 c0 -5 -5 -3 -10 5 -5 8 -10 20 -10 25 0 6 5 3 10 -5 5 -8 10
-19 10 -25z m2240 0 c0 -5 -5 -3 -10 5 -5 8 -10 20 -10 25 0 6 5 3 10 -5 5 -8
10 -19 10 -25z m-1589 -2 c-12 -20 -14 -14 -5 12 4 9 9 14 11 11 3 -2 0 -13
-6 -23z m1120 0 c-12 -20 -14 -14 -5 12 4 9 9 14 11 11 3 -2 0 -13 -6 -23z
m-4161 -13 c0 -5 -4 -10 -10 -10 -5 0 -10 5 -10 10 0 6 5 10 10 10 6 0 10 -4
10 -10z m80 0 c0 -5 -4 -10 -10 -10 -5 0 -10 5 -10 10 0 6 5 10 10 10 6 0 10
-4 10 -10z m80 0 c0 -5 -4 -10 -10 -10 -5 0 -10 5 -10 10 0 6 5 10 10 10 6 0
10 -4 10 -10z m1120 0 c0 -5 -4 -10 -10 -10 -5 0 -10 5 -10 10 0 6 5 10 10 10
6 0 10 -4 10 -10z m80 0 c0 -5 -4 -10 -10 -10 -5 0 -10 5 -10 10 0 6 5 10 10
10 6 0 10 -4 10 -10z m80 0 c0 -5 -4 -10 -10 -10 -5 0 -10 5 -10 10 0 6 5 10
10 10 6 0 10 -4 10 -10z m250 -35 c0 -5 -5 -3 -10 5 -5 8 -10 20 -10 25 0 6 5
3 10 -5 5 -8 10 -19 10 -25z m720 0 c0 -5 -5 -3 -10 5 -5 8 -10 20 -10 25 0 6
5 3 10 -5 5 -8 10 -19 10 -25z m2240 0 c0 -5 -5 -3 -10 5 -5 8 -10 20 -10 25
0 6 5 3 10 -5 5 -8 10 -19 10 -25z m-1629 -2 c-12 -20 -14 -14 -5 12 4 9 9 14
11 11 3 -2 0 -13 -6 -23z m1120 0 c-12 -20 -14 -14 -5 12 4 9 9 14 11 11 3 -2
0 -13 -6 -23z m-3901 7 c0 -5 -4 -10 -10 -10 -5 0 -10 5 -10 10 0 6 5 10 10
10 6 0 10 -4 10 -10z m960 0 c0 -5 -4 -10 -10 -10 -5 0 -10 5 -10 10 0 6 5 10
10 10 6 0 10 -4 10 -10z m568 -27 c-10 -2 -26 -2 -35 0 -10 3 -2 5 17 5 19 0
27 -2 18 -5z m320 0 c-10 -2 -26 -2 -35 0 -10 3 -2 5 17 5 19 0 27 -2 18 -5z
m80 0 c-10 -2 -26 -2 -35 0 -10 3 -2 5 17 5 19 0 27 -2 18 -5z m80 0 c-10 -2
-26 -2 -35 0 -10 3 -2 5 17 5 19 0 27 -2 18 -5z m240 0 c-10 -2 -26 -2 -35 0
-10 3 -2 5 17 5 19 0 27 -2 18 -5z m80 0 c-10 -2 -26 -2 -35 0 -10 3 -2 5 17
5 19 0 27 -2 18 -5z m80 0 c-10 -2 -26 -2 -35 0 -10 3 -2 5 17 5 19 0 27 -2
18 -5z m80 0 c-10 -2 -26 -2 -35 0 -10 3 -2 5 17 5 19 0 27 -2 18 -5z m80 0
c-10 -2 -26 -2 -35 0 -10 3 -2 5 17 5 19 0 27 -2 18 -5z m160 0 c-10 -2 -26
-2 -35 0 -10 3 -2 5 17 5 19 0 27 -2 18 -5z m400 0 c-10 -2 -26 -2 -35 0 -10
3 -2 5 17 5 19 0 27 -2 18 -5z m240 0 c-10 -2 -26 -2 -35 0 -10 3 -2 5 17 5
19 0 27 -2 18 -5z m80 0 c-10 -2 -26 -2 -35 0 -10 3 -2 5 17 5 19 0 27 -2 18
-5z m80 0 c-10 -2 -26 -2 -35 0 -10 3 -2 5 17 5 19 0 27 -2 18 -5z m80 0 c-10
-2 -26 -2 -35 0 -10 3 -2 5 17 5 19 0 27 -2 18 -5z m80 0 c-10 -2 -26 -2 -35
0 -10 3 -2 5 17 5 19 0 27 -2 18 -5z m80 0 c-10 -2 -26 -2 -35 0 -10 3 -2 5
17 5 19 0 27 -2 18 -5z m400 0 c-10 -2 -26 -2 -35 0 -10 3 -2 5 17 5 19 0 27
-2 18 -5z m560 0 c-10 -2 -26 -2 -35 0 -10 3 -2 5 17 5 19 0 27 -2 18 -5z m80
0 c-10 -2 -26 -2 -35 0 -10 3 -2 5 17 5 19 0 27 -2 18 -5z m80 0 c-10 -2 -26
-2 -35 0 -10 3 -2 5 17 5 19 0 27 -2 18 -5z m80 0 c-10 -2 -26 -2 -35 0 -10 3
-2 5 17 5 19 0 27 -2 18 -5z m80 0 c-10 -2 -26 -2 -35 0 -10 3 -2 5 17 5 19 0
27 -2 18 -5z m80 0 c-10 -2 -26 -2 -35 0 -10 3 -2 5 17 5 19 0 27 -2 18 -5z
m160 0 c-10 -2 -26 -2 -35 0 -10 3 -2 5 17 5 19 0 27 -2 18 -5z m80 0 c-10 -2
-26 -2 -35 0 -10 3 -2 5 17 5 19 0 27 -2 18 -5z m80 0 c-10 -2 -26 -2 -35 0
-10 3 -2 5 17 5 19 0 27 -2 18 -5z m80 0 c-10 -2 -26 -2 -35 0 -10 3 -2 5 17
5 19 0 27 -2 18 -5z m80 0 c-10 -2 -26 -2 -35 0 -10 3 -2 5 17 5 19 0 27 -2
18 -5z m80 0 c-10 -2 -26 -2 -35 0 -10 3 -2 5 17 5 19 0 27 -2 18 -5z m-5954
-135 c-9 -59 -14 -60 -14 -5 0 26 5 47 10 47 6 0 8 -16 4 -42z m45 -5 c-1 -47
-1 -47 -9 -14 -7 31 -4 61 6 61 2 0 4 -21 3 -47z m35 5 c-9 -59 -14 -60 -14
-5 0 26 5 47 10 47 6 0 8 -16 4 -42z m45 -5 c-1 -47 -1 -47 -9 -14 -7 31 -4
61 6 61 2 0 4 -21 3 -47z m35 5 c-9 -59 -14 -60 -14 -5 0 26 5 47 10 47 6 0 8
-16 4 -42z m45 -5 c-1 -47 -1 -47 -9 -14 -7 31 -4 61 6 61 2 0 4 -21 3 -47z
m35 5 c-9 -59 -14 -60 -14 -5 0 26 5 47 10 47 6 0 8 -16 4 -42z m45 -5 c-1
-47 -1 -47 -9 -14 -7 31 -4 61 6 61 2 0 4 -21 3 -47z m35 5 c-9 -59 -14 -60
-14 -5 0 26 5 47 10 47 6 0 8 -16 4 -42z m45 -5 c-1 -47 -1 -47 -9 -14 -7 31
-4 61 6 61 2 0 4 -21 3 -47z m35 5 c-9 -59 -14 -60 -14 -5 0 26 5 47 10 47 6
0 8 -16 4 -42z m45 -5 c-1 -47 -1 -47 -9 -14 -7 31 -4 61 6 61 2 0 4 -21 3
-47z m35 5 c-9 -59 -14 -60 -14 -5 0 26 5 47 10 47 6 0 8 -16 4 -42z m45 -5
c-1 -47 -1 -47 -9 -14 -7 31 -4 61 6 61 2 0 4 -21 3 -47z m35 5 c-9 -59 -14
-60 -14 -5 0 26 5 47 10 47 6 0 8 -16 4 -42z m45 -5 c-1 -47 -1 -47 -9 -14 -7
31 -4 61 6 61 2 0 4 -21 3 -47z m35 5 c-9 -59 -14 -60 -14 -5 0 26 5 47 10 47
6 0 8 -16 4 -42z m45 -5 c-1 -47 -1 -47 -9 -14 -7 31 -4 61 6 61 2 0 4 -21 3
-47z m35 5 c-9 -59 -14 -60 -14 -5 0 26 5 47 10 47 6 0 8 -16 4 -42z m45 -5
c-1 -47 -1 -47 -9 -14 -7 31 -4 61 6 61 2 0 4 -21 3 -47z m35 5 c-9 -59 -14
-60 -14 -5 0 26 5 47 10 47 6 0 8 -16 4 -42z m45 -5 c-1 -47 -1 -47 -9 -14 -7
31 -4 61 6 61 2 0 4 -21 3 -47z m35 5 c-9 -59 -14 -60 -14 -5 0 26 5 47 10 47
6 0 8 -16 4 -42z m45 -5 c-1 -47 -1 -47 -9 -14 -7 31 -4 61 6 61 2 0 4 -21 3
-47z m35 5 c-9 -59 -14 -60 -14 -5 0 26 5 47 10 47 6 0 8 -16 4 -42z m45 -5
c-1 -47 -1 -47 -9 -14 -7 31 -4 61 6 61 2 0 4 -21 3 -47z m35 5 c-9 -59 -14
-60 -14 -5 0 26 5 47 10 47 6 0 8 -16 4 -42z m45 -5 c-1 -47 -1 -47 -9 -14 -7
31 -4 61 6 61 2 0 4 -21 3 -47z m35 5 c-9 -59 -14 -60 -14 -5 0 26 5 47 10 47
6 0 8 -16 4 -42z m45 -5 c-1 -47 -1 -47 -9 -14 -7 31 -4 61 6 61 2 0 4 -21 3
-47z m35 5 c-9 -59 -14 -60 -14 -5 0 26 5 47 10 47 6 0 8 -16 4 -42z m45 -5
c-1 -47 -1 -47 -9 -14 -7 31 -4 61 6 61 2 0 4 -21 3 -47z m35 5 c-9 -59 -14
-60 -14 -5 0 26 5 47 10 47 6 0 8 -16 4 -42z m45 -5 c-1 -47 -1 -47 -9 -14 -7
31 -4 61 6 61 2 0 4 -21 3 -47z m35 5 c-9 -59 -14 -60 -14 -5 0 26 5 47 10 47
6 0 8 -16 4 -42z m45 -5 c-1 -47 -1 -47 -9 -14 -7 31 -4 61 6 61 2 0 4 -21 3
-47z m35 5 c-9 -59 -14 -60 -14 -5 0 26 5 47 10 47 6 0 8 -16 4 -42z m45 -5
c-1 -47 -1 -47 -9 -14 -7 31 -4 61 6 61 2 0 4 -21 3 -47z m611 12 c0 -5 -5 -3
-10 5 -5 8 -10 20 -10 25 0 6 5 3 10 -5 5 -8 10 -19 10 -25z m240 0 c0 -5 -5
-3 -10 5 -5 8 -10 20 -10 25 0 6 5 3 10 -5 5 -8 10 -19 10 -25z m160 0 c0 -5
-5 -3 -10 5 -5 8 -10 20 -10 25 0 6 5 3 10 -5 5 -8 10 -19 10 -25z m400 0 c0
-5 -5 -3 -10 5 -5 8 -10 20 -10 25 0 6 5 3 10 -5 5 -8 10 -19 10 -25z m80 0
c0 -5 -5 -3 -10 5 -5 8 -10 20 -10 25 0 6 5 3 10 -5 5 -8 10 -19 10 -25z m480
0 c0 -5 -5 -3 -10 5 -5 8 -10 20 -10 25 0 6 5 3 10 -5 5 -8 10 -19 10 -25z
m1040 0 c0 -5 -5 -3 -10 5 -5 8 -10 20 -10 25 0 6 5 3 10 -5 5 -8 10 -19 10
-25z m240 0 c0 -5 -5 -3 -10 5 -5 8 -10 20 -10 25 0 6 5 3 10 -5 5 -8 10 -19
10 -25z m-3029 -2 c-12 -20 -14 -14 -5 12 4 9 9 14 11 11 3 -2 0 -13 -6 -23z
m720 0 c-12 -20 -14 -14 -5 12 4 9 9 14 11 11 3 -2 0 -13 -6 -23z m1120 0
c-12 -20 -14 -14 -5 12 4 9 9 14 11 11 3 -2 0 -13 -6 -23z m480 0 c-12 -20
-14 -14 -5 12 4 9 9 14 11 11 3 -2 0 -13 -6 -23z m80 0 c-12 -20 -14 -14 -5
12 4 9 9 14 11 11 3 -2 0 -13 -6 -23z m240 0 c-12 -20 -14 -14 -5 12 4 9 9 14
11 11 3 -2 0 -13 -6 -23z m560 0 c-12 -20 -14 -14 -5 12 4 9 9 14 11 11 3 -2
0 -13 -6 -23z m480 0 c-12 -20 -14 -14 -5 12 4 9 9 14 11 11 3 -2 0 -13 -6
-23z m80 0 c-12 -20 -14 -14 -5 12 4 9 9 14 11 11 3 -2 0 -13 -6 -23z m480 0
c-12 -20 -14 -14 -5 12 4 9 9 14 11 11 3 -2 0 -13 -6 -23z m-5921 -13 c0 -5
-4 -10 -10 -10 -5 0 -10 5 -10 10 0 6 5 10 10 10 6 0 10 -4 10 -10z m80 0 c0
-5 -4 -10 -10 -10 -5 0 -10 5 -10 10 0 6 5 10 10 10 6 0 10 -4 10 -10z m80 0
c0 -5 -4 -10 -10 -10 -5 0 -10 5 -10 10 0 6 5 10 10 10 6 0 10 -4 10 -10z m80
0 c0 -5 -4 -10 -10 -10 -5 0 -10 5 -10 10 0 6 5 10 10 10 6 0 10 -4 10 -10z
m80 0 c0 -5 -4 -10 -10 -10 -5 0 -10 5 -10 10 0 6 5 10 10 10 6 0 10 -4 10
-10z m80 0 c0 -5 -4 -10 -10 -10 -5 0 -10 5 -10 10 0 6 5 10 10 10 6 0 10 -4
10 -10z m80 0 c0 -5 -4 -10 -10 -10 -5 0 -10 5 -10 10 0 6 5 10 10 10 6 0 10
-4 10 -10z m80 0 c0 -5 -4 -10 -10 -10 -5 0 -10 5 -10 10 0 6 5 10 10 10 6 0
10 -4 10 -10z m80 0 c0 -5 -4 -10 -10 -10 -5 0 -10 5 -10 10 0 6 5 10 10 10 6
0 10 -4 10 -10z m80 0 c0 -5 -4 -10 -10 -10 -5 0 -10 5 -10 10 0 6 5 10 10 10
6 0 10 -4 10 -10z m80 0 c0 -5 -4 -10 -10 -10 -5 0 -10 5 -10 10 0 6 5 10 10
10 6 0 10 -4 10 -10z m80 0 c0 -5 -4 -10 -10 -10 -5 0 -10 5 -10 10 0 6 5 10
10 10 6 0 10 -4 10 -10z m80 0 c0 -5 -4 -10 -10 -10 -5 0 -10 5 -10 10 0 6 5
10 10 10 6 0 10 -4 10 -10z m80 0 c0 -5 -4 -10 -10 -10 -5 0 -10 5 -10 10 0 6
5 10 10 10 6 0 10 -4 10 -10z m80 0 c0 -5 -4 -10 -10 -10 -5 0 -10 5 -10 10 0
6 5 10 10 10 6 0 10 -4 10 -10z m80 0 c0 -5 -4 -10 -10 -10 -5 0 -10 5 -10 10
0 6 5 10 10 10 6 0 10 -4 10 -10z m80 0 c0 -5 -4 -10 -10 -10 -5 0 -10 5 -10
10 0 6 5 10 10 10 6 0 10 -4 10 -10z m80 0 c0 -5 -4 -10 -10 -10 -5 0 -10 5
-10 10 0 6 5 10 10 10 6 0 10 -4 10 -10z m80 0 c0 -5 -4 -10 -10 -10 -5 0 -10
5 -10 10 0 6 5 10 10 10 6 0 10 -4 10 -10z m650 -35 c0 -5 -5 -3 -10 5 -5 8
-10 20 -10 25 0 6 5 3 10 -5 5 -8 10 -19 10 -25z m240 0 c0 -5 -5 -3 -10 5 -5
8 -10 20 -10 25 0 6 5 3 10 -5 5 -8 10 -19 10 -25z m160 0 c0 -5 -5 -3 -10 5
-5 8 -10 20 -10 25 0 6 5 3 10 -5 5 -8 10 -19 10 -25z m400 0 c0 -5 -5 -3 -10
5 -5 8 -10 20 -10 25 0 6 5 3 10 -5 5 -8 10 -19 10 -25z m80 0 c0 -5 -5 -3
-10 5 -5 8 -10 20 -10 25 0 6 5 3 10 -5 5 -8 10 -19 10 -25z m480 0 c0 -5 -5
-3 -10 5 -5 8 -10 20 -10 25 0 6 5 3 10 -5 5 -8 10 -19 10 -25z m1040 0 c0 -5
-5 -3 -10 5 -5 8 -10 20 -10 25 0 6 5 3 10 -5 5 -8 10 -19 10 -25z m240 0 c0
-5 -5 -3 -10 5 -5 8 -10 20 -10 25 0 6 5 3 10 -5 5 -8 10 -19 10 -25z m-3069
-2 c-12 -20 -14 -14 -5 12 4 9 9 14 11 11 3 -2 0 -13 -6 -23z m720 0 c-12 -20
-14 -14 -5 12 4 9 9 14 11 11 3 -2 0 -13 -6 -23z m1120 0 c-12 -20 -14 -14 -5
12 4 9 9 14 11 11 3 -2 0 -13 -6 -23z m480 0 c-12 -20 -14 -14 -5 12 4 9 9 14
11 11 3 -2 0 -13 -6 -23z m80 0 c-12 -20 -14 -14 -5 12 4 9 9 14 11 11 3 -2 0
-13 -6 -23z m240 0 c-12 -20 -14 -14 -5 12 4 9 9 14 11 11 3 -2 0 -13 -6 -23z
m560 0 c-12 -20 -14 -14 -5 12 4 9 9 14 11 11 3 -2 0 -13 -6 -23z m480 0 c-12
-20 -14 -14 -5 12 4 9 9 14 11 11 3 -2 0 -13 -6 -23z m80 0 c-12 -20 -14 -14
-5 12 4 9 9 14 11 11 3 -2 0 -13 -6 -23z m480 0 c-12 -20 -14 -14 -5 12 4 9 9
14 11 11 3 -2 0 -13 -6 -23z m-3333 -20 c-10 -2 -26 -2 -35 0 -10 3 -2 5 17 5
19 0 27 -2 18 -5z m80 0 c-10 -2 -26 -2 -35 0 -10 3 -2 5 17 5 19 0 27 -2 18
-5z m640 0 c-10 -2 -26 -2 -35 0 -10 3 -2 5 17 5 19 0 27 -2 18 -5z m80 0
c-10 -2 -26 -2 -35 0 -10 3 -2 5 17 5 19 0 27 -2 18 -5z m400 0 c-10 -2 -26
-2 -35 0 -10 3 -2 5 17 5 19 0 27 -2 18 -5z m80 0 c-10 -2 -26 -2 -35 0 -10 3
-2 5 17 5 19 0 27 -2 18 -5z m80 0 c-10 -2 -26 -2 -35 0 -10 3 -2 5 17 5 19 0
27 -2 18 -5z m480 0 c-10 -2 -26 -2 -35 0 -10 3 -2 5 17 5 19 0 27 -2 18 -5z
m720 0 c-10 -2 -26 -2 -35 0 -10 3 -2 5 17 5 19 0 27 -2 18 -5z m80 0 c-10 -2
-26 -2 -35 0 -10 3 -2 5 17 5 19 0 27 -2 18 -5z m80 0 c-10 -2 -26 -2 -35 0
-10 3 -2 5 17 5 19 0 27 -2 18 -5z m400 0 c-10 -2 -26 -2 -35 0 -10 3 -2 5 17
5 19 0 27 -2 18 -5z m80 0 c-10 -2 -26 -2 -35 0 -10 3 -2 5 17 5 19 0 27 -2
18 -5z m80 0 c-10 -2 -26 -2 -35 0 -10 3 -2 5 17 5 19 0 27 -2 18 -5z m-2811
-190 c-2 -21 -4 -4 -4 37 0 41 2 58 4 38 2 -21 2 -55 0 -75z m240 0 c-2 -21
-4 -4 -4 37 0 41 2 58 4 38 2 -21 2 -55 0 -75z m1120 0 c-2 -21 -4 -4 -4 37 0
41 2 58 4 38 2 -21 2 -55 0 -75z m-4423 55 c-9 -59 -14 -60 -14 -5 0 26 5 47
10 47 6 0 8 -16 4 -42z m45 -5 c-1 -47 -1 -47 -9 -14 -7 31 -4 61 6 61 2 0 4
-21 3 -47z m35 5 c-9 -59 -14 -60 -14 -5 0 26 5 47 10 47 6 0 8 -16 4 -42z
m45 -5 c-1 -47 -1 -47 -9 -14 -7 31 -4 61 6 61 2 0 4 -21 3 -47z m35 5 c-9
-59 -14 -60 -14 -5 0 26 5 47 10 47 6 0 8 -16 4 -42z m45 -5 c-1 -47 -1 -47
-9 -14 -7 31 -4 61 6 61 2 0 4 -21 3 -47z m35 5 c-9 -59 -14 -60 -14 -5 0 26
5 47 10 47 6 0 8 -16 4 -42z m45 -5 c-1 -47 -1 -47 -9 -14 -7 31 -4 61 6 61 2
0 4 -21 3 -47z m35 5 c-9 -59 -14 -60 -14 -5 0 26 5 47 10 47 6 0 8 -16 4 -42z
m45 -5 c-1 -47 -1 -47 -9 -14 -7 31 -4 61 6 61 2 0 4 -21 3 -47z m35 5 c-9
-59 -14 -60 -14 -5 0 26 5 47 10 47 6 0 8 -16 4 -42z m45 -5 c-1 -47 -1 -47
-9 -14 -7 31 -4 61 6 61 2 0 4 -21 3 -47z m35 5 c-9 -59 -14 -60 -14 -5 0 26
5 47 10 47 6 0 8 -16 4 -42z m45 -5 c-1 -47 -1 -47 -9 -14 -7 31 -4 61 6 61 2
0 4 -21 3 -47z m35 5 c-9 -59 -14 -60 -14 -5 0 26 5 47 10 47 6 0 8 -16 4 -42z
m45 -5 c-1 -47 -1 -47 -9 -14 -7 31 -4 61 6 61 2 0 4 -21 3 -47z m35 5 c-9
-59 -14 -60 -14 -5 0 26 5 47 10 47 6 0 8 -16 4 -42z m45 -5 c-1 -47 -1 -47
-9 -14 -7 31 -4 61 6 61 2 0 4 -21 3 -47z m35 5 c-9 -59 -14 -60 -14 -5 0 26
5 47 10 47 6 0 8 -16 4 -42z m45 -5 c-1 -47 -1 -47 -9 -14 -7 31 -4 61 6 61 2
0 4 -21 3 -47z m35 5 c-9 -59 -14 -60 -14 -5 0 26 5 47 10 47 6 0 8 -16 4 -42z
m45 -5 c-1 -47 -1 -47 -9 -14 -7 31 -4 61 6 61 2 0 4 -21 3 -47z m35 5 c-9
-59 -14 -60 -14 -5 0 26 5 47 10 47 6 0 8 -16 4 -42z m45 -5 c-1 -47 -1 -47
-9 -14 -7 31 -4 61 6 61 2 0 4 -21 3 -47z m35 5 c-9 -59 -14 -60 -14 -5 0 26
5 47 10 47 6 0 8 -16 4 -42z m45 -5 c-1 -47 -1 -47 -9 -14 -7 31 -4 61 6 61 2
0 4 -21 3 -47z m35 5 c-9 -59 -14 -60 -14 -5 0 26 5 47 10 47 6 0 8 -16 4 -42z
m45 -5 c-1 -47 -1 -47 -9 -14 -7 31 -4 61 6 61 2 0 4 -21 3 -47z m35 5 c-9
-59 -14 -60 -14 -5 0 26 5 47 10 47 6 0 8 -16 4 -42z m45 -5 c-1 -47 -1 -47
-9 -14 -7 31 -4 61 6 61 2 0 4 -21 3 -47z m35 5 c-9 -59 -14 -60 -14 -5 0 26
5 47 10 47 6 0 8 -16 4 -42z m45 -5 c-1 -47 -1 -47 -9 -14 -7 31 -4 61 6 61 2
0 4 -21 3 -47z m35 5 c-9 -59 -14 -60 -14 -5 0 26 5 47 10 47 6 0 8 -16 4 -42z
m45 -5 c-1 -47 -1 -47 -9 -14 -7 31 -4 61 6 61 2 0 4 -21 3 -47z m35 5 c-9
-59 -14 -60 -14 -5 0 26 5 47 10 47 6 0 8 -16 4 -42z m45 -5 c-1 -47 -1 -47
-9 -14 -7 31 -4 61 6 61 2 0 4 -21 3 -47z m35 5 c-9 -59 -14 -60 -14 -5 0 26
5 47 10 47 6 0 8 -16 4 -42z m45 -5 c-1 -47 -1 -47 -9 -14 -7 31 -4 61 6 61 2
0 4 -21 3 -47z m211 12 c0 -5 -5 -3 -10 5 -5 8 -10 20 -10 25 0 6 5 3 10 -5 5
-8 10 -19 10 -25z m480 0 c0 -5 -5 -3 -10 5 -5 8 -10 20 -10 25 0 6 5 3 10 -5
5 -8 10 -19 10 -25z m800 0 c0 -5 -5 -3 -10 5 -5 8 -10 20 -10 25 0 6 5 3 10
-5 5 -8 10 -19 10 -25z m560 0 c0 -5 -5 -3 -10 5 -5 8 -10 20 -10 25 0 6 5 3
10 -5 5 -8 10 -19 10 -25z m400 0 c0 -5 -5 -3 -10 5 -5 8 -10 20 -10 25 0 6 5
3 10 -5 5 -8 10 -19 10 -25z m880 0 c0 -5 -5 -3 -10 5 -5 8 -10 20 -10 25 0 6
5 3 10 -5 5 -8 10 -19 10 -25z m80 0 c0 -5 -5 -3 -10 5 -5 8 -10 20 -10 25 0
6 5 3 10 -5 5 -8 10 -19 10 -25z m400 0 c0 -5 -5 -3 -10 5 -5 8 -10 20 -10 25
0 6 5 3 10 -5 5 -8 10 -19 10 -25z m160 0 c0 -5 -5 -3 -10 5 -5 8 -10 20 -10
25 0 6 5 3 10 -5 5 -8 10 -19 10 -25z m400 0 c0 -5 -5 -3 -10 5 -5 8 -10 20
-10 25 0 6 5 3 10 -5 5 -8 10 -19 10 -25z m-3269 -2 c-12 -20 -14 -14 -5 12 4
9 9 14 11 11 3 -2 0 -13 -6 -23z m1440 0 c-12 -20 -14 -14 -5 12 4 9 9 14 11
11 3 -2 0 -13 -6 -23z m-4001 -13 c0 -5 -4 -10 -10 -10 -5 0 -10 5 -10 10 0 6
5 10 10 10 6 0 10 -4 10 -10z m80 0 c0 -5 -4 -10 -10 -10 -5 0 -10 5 -10 10 0
6 5 10 10 10 6 0 10 -4 10 -10z m80 0 c0 -5 -4 -10 -10 -10 -5 0 -10 5 -10 10
0 6 5 10 10 10 6 0 10 -4 10 -10z m80 0 c0 -5 -4 -10 -10 -10 -5 0 -10 5 -10
10 0 6 5 10 10 10 6 0 10 -4 10 -10z m80 0 c0 -5 -4 -10 -10 -10 -5 0 -10 5
-10 10 0 6 5 10 10 10 6 0 10 -4 10 -10z m80 0 c0 -5 -4 -10 -10 -10 -5 0 -10
5 -10 10 0 6 5 10 10 10 6 0 10 -4 10 -10z m80 0 c0 -5 -4 -10 -10 -10 -5 0
-10 5 -10 10 0 6 5 10 10 10 6 0 10 -4 10 -10z m80 0 c0 -5 -4 -10 -10 -10 -5
0 -10 5 -10 10 0 6 5 10 10 10 6 0 10 -4 10 -10z m80 0 c0 -5 -4 -10 -10 -10
-5 0 -10 5 -10 10 0 6 5 10 10 10 6 0 10 -4 10 -10z m80 0 c0 -5 -4 -10 -10
-10 -5 0 -10 5 -10 10 0 6 5 10 10 10 6 0 10 -4 10 -10z m80 0 c0 -5 -4 -10
-10 -10 -5 0 -10 5 -10 10 0 6 5 10 10 10 6 0 10 -4 10 -10z m80 0 c0 -5 -4
-10 -10 -10 -5 0 -10 5 -10 10 0 6 5 10 10 10 6 0 10 -4 10 -10z m80 0 c0 -5
-4 -10 -10 -10 -5 0 -10 5 -10 10 0 6 5 10 10 10 6 0 10 -4 10 -10z m80 0 c0
-5 -4 -10 -10 -10 -5 0 -10 5 -10 10 0 6 5 10 10 10 6 0 10 -4 10 -10z m80 0
c0 -5 -4 -10 -10 -10 -5 0 -10 5 -10 10 0 6 5 10 10 10 6 0 10 -4 10 -10z m80
0 c0 -5 -4 -10 -10 -10 -5 0 -10 5 -10 10 0 6 5 10 10 10 6 0 10 -4 10 -10z
m80 0 c0 -5 -4 -10 -10 -10 -5 0 -10 5 -10 10 0 6 5 10 10 10 6 0 10 -4 10
-10z m80 0 c0 -5 -4 -10 -10 -10 -5 0 -10 5 -10 10 0 6 5 10 10 10 6 0 10 -4
10 -10z m80 0 c0 -5 -4 -10 -10 -10 -5 0 -10 5 -10 10 0 6 5 10 10 10 6 0 10
-4 10 -10z m250 -35 c0 -5 -5 -3 -10 5 -5 8 -10 20 -10 25 0 6 5 3 10 -5 5 -8
10 -19 10 -25z m480 0 c0 -5 -5 -3 -10 5 -5 8 -10 20 -10 25 0 6 5 3 10 -5 5
-8 10 -19 10 -25z m800 0 c0 -5 -5 -3 -10 5 -5 8 -10 20 -10 25 0 6 5 3 10 -5
5 -8 10 -19 10 -25z m560 0 c0 -5 -5 -3 -10 5 -5 8 -10 20 -10 25 0 6 5 3 10
-5 5 -8 10 -19 10 -25z m400 0 c0 -5 -5 -3 -10 5 -5 8 -10 20 -10 25 0 6 5 3
10 -5 5 -8 10 -19 10 -25z m880 0 c0 -5 -5 -3 -10 5 -5 8 -10 20 -10 25 0 6 5
3 10 -5 5 -8 10 -19 10 -25z m80 0 c0 -5 -5 -3 -10 5 -5 8 -10 20 -10 25 0 6
5 3 10 -5 5 -8 10 -19 10 -25z m400 0 c0 -5 -5 -3 -10 5 -5 8 -10 20 -10 25 0
6 5 3 10 -5 5 -8 10 -19 10 -25z m160 0 c0 -5 -5 -3 -10 5 -5 8 -10 20 -10 25
0 6 5 3 10 -5 5 -8 10 -19 10 -25z m400 0 c0 -5 -5 -3 -10 5 -5 8 -10 20 -10
25 0 6 5 3 10 -5 5 -8 10 -19 10 -25z m-3309 -2 c-12 -20 -14 -14 -5 12 4 9 9
14 11 11 3 -2 0 -13 -6 -23z m1440 0 c-12 -20 -14 -14 -5 12 4 9 9 14 11 11 3
-2 0 -13 -6 -23z m-1733 -20 c-10 -2 -26 -2 -35 0 -10 3 -2 5 17 5 19 0 27 -2
18 -5z m80 0 c-10 -2 -26 -2 -35 0 -10 3 -2 5 17 5 19 0 27 -2 18 -5z m80 0
c-10 -2 -26 -2 -35 0 -10 3 -2 5 17 5 19 0 27 -2 18 -5z m80 0 c-10 -2 -26 -2
-35 0 -10 3 -2 5 17 5 19 0 27 -2 18 -5z m240 0 c-10 -2 -26 -2 -35 0 -10 3
-2 5 17 5 19 0 27 -2 18 -5z m80 0 c-10 -2 -26 -2 -35 0 -10 3 -2 5 17 5 19 0
27 -2 18 -5z m800 0 c-10 -2 -26 -2 -35 0 -10 3 -2 5 17 5 19 0 27 -2 18 -5z
m80 0 c-10 -2 -26 -2 -35 0 -10 3 -2 5 17 5 19 0 27 -2 18 -5z m80 0 c-10 -2
-26 -2 -35 0 -10 3 -2 5 17 5 19 0 27 -2 18 -5z m1200 0 c-10 -2 -26 -2 -35 0
-10 3 -2 5 17 5 19 0 27 -2 18 -5z m80 0 c-10 -2 -26 -2 -35 0 -10 3 -2 5 17
5 19 0 27 -2 18 -5z m80 0 c-10 -2 -26 -2 -35 0 -10 3 -2 5 17 5 19 0 27 -2
18 -5z m400 0 c-10 -2 -26 -2 -35 0 -10 3 -2 5 17 5 19 0 27 -2 18 -5z m80 0
c-10 -2 -26 -2 -35 0 -10 3 -2 5 17 5 19 0 27 -2 18 -5z m80 0 c-10 -2 -26 -2
-35 0 -10 3 -2 5 17 5 19 0 27 -2 18 -5z m-3211 -113 c-9 -23 -8 -38 1 -62 10
-30 10 -31 -3 -14 -17 23 -19 59 -5 87 16 29 20 23 7 -11z m800 -77 c-2 -21
-4 -4 -4 37 0 41 2 58 4 38 2 -21 2 -55 0 -75z m1120 0 c-2 -21 -4 -4 -4 37 0
41 2 58 4 38 2 -21 2 -55 0 -75z m-4503 55 c-9 -59 -14 -60 -14 -5 0 26 5 47
10 47 6 0 8 -16 4 -42z m45 -5 c-1 -47 -1 -47 -9 -14 -7 31 -4 61 6 61 2 0 4
-21 3 -47z m35 5 c-9 -59 -14 -60 -14 -5 0 26 5 47 10 47 6 0 8 -16 4 -42z
m45 -5 c-1 -47 -1 -47 -9 -14 -7 31 -4 61 6 61 2 0 4 -21 3 -47z m35 5 c-9
-59 -14 -60 -14 -5 0 26 5 47 10 47 6 0 8 -16 4 -42z m45 -5 c-1 -47 -1 -47
-9 -14 -7 31 -4 61 6 61 2 0 4 -21 3 -47z m35 5 c-9 -59 -14 -60 -14 -5 0 26
5 47 10 47 6 0 8 -16 4 -42z m45 -5 c-1 -47 -1 -47 -9 -14 -7 31 -4 61 6 61 2
0 4 -21 3 -47z m35 5 c-9 -59 -14 -60 -14 -5 0 26 5 47 10 47 6 0 8 -16 4 -42z
m45 -5 c-1 -47 -1 -47 -9 -14 -7 31 -4 61 6 61 2 0 4 -21 3 -47z m35 5 c-9
-59 -14 -60 -14 -5 0 26 5 47 10 47 6 0 8 -16 4 -42z m45 -5 c-1 -47 -1 -47
-9 -14 -7 31 -4 61 6 61 2 0 4 -21 3 -47z m35 5 c-9 -59 -14 -60 -14 -5 0 26
5 47 10 47 6 0 8 -16 4 -42z m45 -5 c-1 -47 -1 -47 -9 -14 -7 31 -4 61 6 61 2
0 4 -21 3 -47z m35 5 c-9 -59 -14 -60 -14 -5 0 26 5 47 10 47 6 0 8 -16 4 -42z
m45 -5 c-1 -47 -1 -47 -9 -14 -7 31 -4 61 6 61 2 0 4 -21 3 -47z m35 5 c-9
-59 -14 -60 -14 -5 0 26 5 47 10 47 6 0 8 -16 4 -42z m45 -5 c-1 -47 -1 -47
-9 -14 -7 31 -4 61 6 61 2 0 4 -21 3 -47z m35 5 c-9 -59 -14 -60 -14 -5 0 26
5 47 10 47 6 0 8 -16 4 -42z m45 -5 c-1 -47 -1 -47 -9 -14 -7 31 -4 61 6 61 2
0 4 -21 3 -47z m35 5 c-9 -59 -14 -60 -14 -5 0 26 5 47 10 47 6 0 8 -16 4 -42z
m45 -5 c-1 -47 -1 -47 -9 -14 -7 31 -4 61 6 61 2 0 4 -21 3 -47z m35 5 c-9
-59 -14 -60 -14 -5 0 26 5 47 10 47 6 0 8 -16 4 -42z m45 -5 c-1 -47 -1 -47
-9 -14 -7 31 -4 61 6 61 2 0 4 -21 3 -47z m35 5 c-9 -59 -14 -60 -14 -5 0 26
5 47 10 47 6 0 8 -16 4 -42z m45 -5 c-1 -47 -1 -47 -9 -14 -7 31 -4 61 6 61 2
0 4 -21 3 -47z m35 5 c-9 -59 -14 -60 -14 -5 0 26 5 47 10 47 6 0 8 -16 4 -42z
m45 -5 c-1 -47 -1 -47 -9 -14 -7 31 -4 61 6 61 2 0 4 -21 3 -47z m35 5 c-9
-59 -14 -60 -14 -5 0 26 5 47 10 47 6 0 8 -16 4 -42z m45 -5 c-1 -47 -1 -47
-9 -14 -7 31 -4 61 6 61 2 0 4 -21 3 -47z m35 5 c-9 -59 -14 -60 -14 -5 0 26
5 47 10 47 6 0 8 -16 4 -42z m45 -5 c-1 -47 -1 -47 -9 -14 -7 31 -4 61 6 61 2
0 4 -21 3 -47z m35 5 c-9 -59 -14 -60 -14 -5 0 26 5 47 10 47 6 0 8 -16 4 -42z
m45 -5 c-1 -47 -1 -47 -9 -14 -7 31 -4 61 6 61 2 0 4 -21 3 -47z m35 5 c-9
-59 -14 -60 -14 -5 0 26 5 47 10 47 6 0 8 -16 4 -42z m45 -5 c-1 -47 -1 -47
-9 -14 -7 31 -4 61 6 61 2 0 4 -21 3 -47z m35 5 c-9 -59 -14 -60 -14 -5 0 26
5 47 10 47 6 0 8 -16 4 -42z m45 -5 c-1 -47 -1 -47 -9 -14 -7 31 -4 61 6 61 2
0 4 -21 3 -47z m35 5 c-9 -59 -14 -60 -14 -5 0 26 5 47 10 47 6 0 8 -16 4 -42z
m45 -5 c-1 -47 -1 -47 -9 -14 -7 31 -4 61 6 61 2 0 4 -21 3 -47z m35 5 c-9
-59 -14 -60 -14 -5 0 26 5 47 10 47 6 0 8 -16 4 -42z m45 -5 c-1 -47 -1 -47
-9 -14 -7 31 -4 61 6 61 2 0 4 -21 3 -47z m211 12 c0 -5 -5 -3 -10 5 -5 8 -10
20 -10 25 0 6 5 3 10 -5 5 -8 10 -19 10 -25z m1291 -2 c-12 -20 -14 -14 -5 12
4 9 9 14 11 11 3 -2 0 -13 -6 -23z m400 0 c-12 -20 -14 -14 -5 12 4 9 9 14 11
11 3 -2 0 -13 -6 -23z m572 -1 c3 -4 -7 -16 -22 -26 l-26 -20 19 22 c19 22 19
23 0 38 -18 14 -18 15 3 4 12 -5 24 -13 26 -18z m788 1 c-12 -20 -14 -14 -5
12 4 9 9 14 11 11 3 -2 0 -13 -6 -23z m572 -1 c3 -4 -7 -16 -22 -26 l-26 -20
19 22 c19 22 19 23 0 38 -18 14 -18 15 3 4 12 -5 24 -13 26 -18z m560 0 c3 -4
-7 -16 -22 -26 l-26 -20 19 22 c19 22 19 23 0 38 -18 14 -18 15 3 4 12 -5 24
-13 26 -18z m-6013 -12 c0 -5 -4 -10 -10 -10 -5 0 -10 5 -10 10 0 6 5 10 10
10 6 0 10 -4 10 -10z m80 0 c0 -5 -4 -10 -10 -10 -5 0 -10 5 -10 10 0 6 5 10
10 10 6 0 10 -4 10 -10z m80 0 c0 -5 -4 -10 -10 -10 -5 0 -10 5 -10 10 0 6 5
10 10 10 6 0 10 -4 10 -10z m80 0 c0 -5 -4 -10 -10 -10 -5 0 -10 5 -10 10 0 6
5 10 10 10 6 0 10 -4 10 -10z m80 0 c0 -5 -4 -10 -10 -10 -5 0 -10 5 -10 10 0
6 5 10 10 10 6 0 10 -4 10 -10z m80 0 c0 -5 -4 -10 -10 -10 -5 0 -10 5 -10 10
0 6 5 10 10 10 6 0 10 -4 10 -10z m80 0 c0 -5 -4 -10 -10 -10 -5 0 -10 5 -10
10 0 6 5 10 10 10 6 0 10 -4 10 -10z m80 0 c0 -5 -4 -10 -10 -10 -5 0 -10 5
-10 10 0 6 5 10 10 10 6 0 10 -4 10 -10z m80 0 c0 -5 -4 -10 -10 -10 -5 0 -10
5 -10 10 0 6 5 10 10 10 6 0 10 -4 10 -10z m80 0 c0 -5 -4 -10 -10 -10 -5 0
-10 5 -10 10 0 6 5 10 10 10 6 0 10 -4 10 -10z m80 0 c0 -5 -4 -10 -10 -10 -5
0 -10 5 -10 10 0 6 5 10 10 10 6 0 10 -4 10 -10z m80 0 c0 -5 -4 -10 -10 -10
-5 0 -10 5 -10 10 0 6 5 10 10 10 6 0 10 -4 10 -10z m80 0 c0 -5 -4 -10 -10
-10 -5 0 -10 5 -10 10 0 6 5 10 10 10 6 0 10 -4 10 -10z m80 0 c0 -5 -4 -10
-10 -10 -5 0 -10 5 -10 10 0 6 5 10 10 10 6 0 10 -4 10 -10z m80 0 c0 -5 -4
-10 -10 -10 -5 0 -10 5 -10 10 0 6 5 10 10 10 6 0 10 -4 10 -10z m80 0 c0 -5
-4 -10 -10 -10 -5 0 -10 5 -10 10 0 6 5 10 10 10 6 0 10 -4 10 -10z m80 0 c0
-5 -4 -10 -10 -10 -5 0 -10 5 -10 10 0 6 5 10 10 10 6 0 10 -4 10 -10z m80 0
c0 -5 -4 -10 -10 -10 -5 0 -10 5 -10 10 0 6 5 10 10 10 6 0 10 -4 10 -10z m80
0 c0 -5 -4 -10 -10 -10 -5 0 -10 5 -10 10 0 6 5 10 10 10 6 0 10 -4 10 -10z
m80 0 c0 -5 -4 -10 -10 -10 -5 0 -10 5 -10 10 0 6 5 10 10 10 6 0 10 -4 10
-10z m80 0 c0 -5 -4 -10 -10 -10 -5 0 -10 5 -10 10 0 6 5 10 10 10 6 0 10 -4
10 -10z m250 -35 c0 -5 -5 -3 -10 5 -5 8 -10 20 -10 25 0 6 5 3 10 -5 5 -8 10
-19 10 -25z m1251 -2 c-12 -20 -14 -14 -5 12 4 9 9 14 11 11 3 -2 0 -13 -6
-23z m400 0 c-12 -20 -14 -14 -5 12 4 9 9 14 11 11 3 -2 0 -13 -6 -23z m1360
0 c-12 -20 -14 -14 -5 12 4 9 9 14 11 11 3 -2 0 -13 -6 -23z m-2933 -20 c-10
-2 -26 -2 -35 0 -10 3 -2 5 17 5 19 0 27 -2 18 -5z m80 0 c-10 -2 -26 -2 -35
0 -10 3 -2 5 17 5 19 0 27 -2 18 -5z m80 0 c-10 -2 -26 -2 -35 0 -10 3 -2 5
17 5 19 0 27 -2 18 -5z m80 0 c-10 -2 -26 -2 -35 0 -10 3 -2 5 17 5 19 0 27
-2 18 -5z m80 0 c-10 -2 -26 -2 -35 0 -10 3 -2 5 17 5 19 0 27 -2 18 -5z m80
0 c-10 -2 -26 -2 -35 0 -10 3 -2 5 17 5 19 0 27 -2 18 -5z m320 0 c-10 -2 -26
-2 -35 0 -10 3 -2 5 17 5 19 0 27 -2 18 -5z m80 0 c-10 -2 -26 -2 -35 0 -10 3
-2 5 17 5 19 0 27 -2 18 -5z m80 0 c-10 -2 -26 -2 -35 0 -10 3 -2 5 17 5 19 0
27 -2 18 -5z m80 0 c-10 -2 -26 -2 -35 0 -10 3 -2 5 17 5 19 0 27 -2 18 -5z
m320 0 c-10 -2 -26 -2 -35 0 -10 3 -2 5 17 5 19 0 27 -2 18 -5z m80 0 c-10 -2
-26 -2 -35 0 -10 3 -2 5 17 5 19 0 27 -2 18 -5z m320 0 c-10 -2 -26 -2 -35 0
-10 3 -2 5 17 5 19 0 27 -2 18 -5z m80 0 c-10 -2 -26 -2 -35 0 -10 3 -2 5 17
5 19 0 27 -2 18 -5z m80 0 c-10 -2 -26 -2 -35 0 -10 3 -2 5 17 5 19 0 27 -2
18 -5z m80 0 c-10 -2 -26 -2 -35 0 -10 3 -2 5 17 5 19 0 27 -2 18 -5z m320 0
c-10 -2 -26 -2 -35 0 -10 3 -2 5 17 5 19 0 27 -2 18 -5z m80 0 c-10 -2 -26 -2
-35 0 -10 3 -2 5 17 5 19 0 27 -2 18 -5z m80 0 c-10 -2 -26 -2 -35 0 -10 3 -2
5 17 5 19 0 27 -2 18 -5z m80 0 c-10 -2 -26 -2 -35 0 -10 3 -2 5 17 5 19 0 27
-2 18 -5z m160 0 c-10 -2 -26 -2 -35 0 -10 3 -2 5 17 5 19 0 27 -2 18 -5z m80
0 c-10 -2 -26 -2 -35 0 -10 3 -2 5 17 5 19 0 27 -2 18 -5z m320 0 c-10 -2 -26
-2 -35 0 -10 3 -2 5 17 5 19 0 27 -2 18 -5z m80 0 c-10 -2 -26 -2 -35 0 -10 3
-2 5 17 5 19 0 27 -2 18 -5z m80 0 c-10 -2 -26 -2 -35 0 -10 3 -2 5 17 5 19 0
27 -2 18 -5z m80 0 c-10 -2 -26 -2 -35 0 -10 3 -2 5 17 5 19 0 27 -2 18 -5z
m320 0 c-10 -2 -26 -2 -35 0 -10 3 -2 5 17 5 19 0 27 -2 18 -5z m80 0 c-10 -2
-26 -2 -35 0 -10 3 -2 5 17 5 19 0 27 -2 18 -5z m80 0 c-10 -2 -26 -2 -35 0
-10 3 -2 5 17 5 19 0 27 -2 18 -5z m80 0 c-10 -2 -26 -2 -35 0 -10 3 -2 5 17
5 19 0 27 -2 18 -5z m-5874 -135 c-9 -59 -14 -60 -14 -5 0 26 5 47 10 47 6 0
8 -16 4 -42z m45 -5 c-1 -47 -1 -47 -9 -14 -7 31 -4 61 6 61 2 0 4 -21 3 -47z
m35 5 c-9 -59 -14 -60 -14 -5 0 26 5 47 10 47 6 0 8 -16 4 -42z m45 -5 c-1
-47 -1 -47 -9 -14 -7 31 -4 61 6 61 2 0 4 -21 3 -47z m35 5 c-9 -59 -14 -60
-14 -5 0 26 5 47 10 47 6 0 8 -16 4 -42z m45 -5 c-1 -47 -1 -47 -9 -14 -7 31
-4 61 6 61 2 0 4 -21 3 -47z m35 5 c-9 -59 -14 -60 -14 -5 0 26 5 47 10 47 6
0 8 -16 4 -42z m45 -5 c-1 -47 -1 -47 -9 -14 -7 31 -4 61 6 61 2 0 4 -21 3
-47z m35 5 c-9 -59 -14 -60 -14 -5 0 26 5 47 10 47 6 0 8 -16 4 -42z m45 -5
c-1 -47 -1 -47 -9 -14 -7 31 -4 61 6 61 2 0 4 -21 3 -47z m35 5 c-9 -59 -14
-60 -14 -5 0 26 5 47 10 47 6 0 8 -16 4 -42z m45 -5 c-1 -47 -1 -47 -9 -14 -7
31 -4 61 6 61 2 0 4 -21 3 -47z m35 5 c-9 -59 -14 -60 -14 -5 0 26 5 47 10 47
6 0 8 -16 4 -42z m45 -5 c-1 -47 -1 -47 -9 -14 -7 31 -4 61 6 61 2 0 4 -21 3
-47z m35 5 c-9 -59 -14 -60 -14 -5 0 26 5 47 10 47 6 0 8 -16 4 -42z m45 -5
c-1 -47 -1 -47 -9 -14 -7 31 -4 61 6 61 2 0 4 -21 3 -47z m35 5 c-9 -59 -14
-60 -14 -5 0 26 5 47 10 47 6 0 8 -16 4 -42z m45 -5 c-1 -47 -1 -47 -9 -14 -7
31 -4 61 6 61 2 0 4 -21 3 -47z m35 5 c-9 -59 -14 -60 -14 -5 0 26 5 47 10 47
6 0 8 -16 4 -42z m45 -5 c-1 -47 -1 -47 -9 -14 -7 31 -4 61 6 61 2 0 4 -21 3
-47z m35 5 c-9 -59 -14 -60 -14 -5 0 26 5 47 10 47 6 0 8 -16 4 -42z m45 -5
c-1 -47 -1 -47 -9 -14 -7 31 -4 61 6 61 2 0 4 -21 3 -47z m35 5 c-9 -59 -14
-60 -14 -5 0 26 5 47 10 47 6 0 8 -16 4 -42z m45 -5 c-1 -47 -1 -47 -9 -14 -7
31 -4 61 6 61 2 0 4 -21 3 -47z m35 5 c-9 -59 -14 -60 -14 -5 0 26 5 47 10 47
6 0 8 -16 4 -42z m45 -5 c-1 -47 -1 -47 -9 -14 -7 31 -4 61 6 61 2 0 4 -21 3
-47z m35 5 c-9 -59 -14 -60 -14 -5 0 26 5 47 10 47 6 0 8 -16 4 -42z m45 -5
c-1 -47 -1 -47 -9 -14 -7 31 -4 61 6 61 2 0 4 -21 3 -47z m35 5 c-9 -59 -14
-60 -14 -5 0 26 5 47 10 47 6 0 8 -16 4 -42z m45 -5 c-1 -47 -1 -47 -9 -14 -7
31 -4 61 6 61 2 0 4 -21 3 -47z m35 5 c-9 -59 -14 -60 -14 -5 0 26 5 47 10 47
6 0 8 -16 4 -42z m45 -5 c-1 -47 -1 -47 -9 -14 -7 31 -4 61 6 61 2 0 4 -21 3
-47z m35 5 c-9 -59 -14 -60 -14 -5 0 26 5 47 10 47 6 0 8 -16 4 -42z m45 -5
c-1 -47 -1 -47 -9 -14 -7 31 -4 61 6 61 2 0 4 -21 3 -47z m35 5 c-9 -59 -14
-60 -14 -5 0 26 5 47 10 47 6 0 8 -16 4 -42z m45 -5 c-1 -47 -1 -47 -9 -14 -7
31 -4 61 6 61 2 0 4 -21 3 -47z m35 5 c-9 -59 -14 -60 -14 -5 0 26 5 47 10 47
6 0 8 -16 4 -42z m45 -5 c-1 -47 -1 -47 -9 -14 -7 31 -4 61 6 61 2 0 4 -21 3
-47z m35 5 c-9 -59 -14 -60 -14 -5 0 26 5 47 10 47 6 0 8 -16 4 -42z m45 -5
c-1 -47 -1 -47 -9 -14 -7 31 -4 61 6 61 2 0 4 -21 3 -47z m35 5 c-9 -59 -14
-60 -14 -5 0 26 5 47 10 47 6 0 8 -16 4 -42z m45 -5 c-1 -47 -1 -47 -9 -14 -7
31 -4 61 6 61 2 0 4 -21 3 -47z m35 5 c-9 -59 -14 -60 -14 -5 0 26 5 47 10 47
6 0 8 -16 4 -42z m45 -5 c-1 -47 -1 -47 -9 -14 -7 31 -4 61 6 61 2 0 4 -21 3
-47z m35 5 c-9 -59 -14 -60 -14 -5 0 26 5 47 10 47 6 0 8 -16 4 -42z m45 -5
c-1 -47 -1 -47 -9 -14 -7 31 -4 61 6 61 2 0 4 -21 3 -47z m691 12 c0 -5 -5 -3
-10 5 -5 8 -10 20 -10 25 0 6 5 3 10 -5 5 -8 10 -19 10 -25z m560 0 c0 -5 -5
-3 -10 5 -5 8 -10 20 -10 25 0 6 5 3 10 -5 5 -8 10 -19 10 -25z m960 0 c0 -5
-5 -3 -10 5 -5 8 -10 20 -10 25 0 6 5 3 10 -5 5 -8 10 -19 10 -25z m800 0 c0
-5 -5 -3 -10 5 -5 8 -10 20 -10 25 0 6 5 3 10 -5 5 -8 10 -19 10 -25z m560 0
c0 -5 -5 -3 -10 5 -5 8 -10 20 -10 25 0 6 5 3 10 -5 5 -8 10 -19 10 -25z m560
0 c0 -5 -5 -3 -10 5 -5 8 -10 20 -10 25 0 6 5 3 10 -5 5 -8 10 -19 10 -25z
m-3349 -2 c-12 -20 -14 -14 -5 12 4 9 9 14 11 11 3 -2 0 -13 -6 -23z m560 0
c-12 -20 -14 -14 -5 12 4 9 9 14 11 11 3 -2 0 -13 -6 -23z m960 0 c-12 -20
-14 -14 -5 12 4 9 9 14 11 11 3 -2 0 -13 -6 -23z m800 0 c-12 -20 -14 -14 -5
12 4 9 9 14 11 11 3 -2 0 -13 -6 -23z m560 0 c-12 -20 -14 -14 -5 12 4 9 9 14
11 11 3 -2 0 -13 -6 -23z m560 0 c-12 -20 -14 -14 -5 12 4 9 9 14 11 11 3 -2
0 -13 -6 -23z m-6001 -13 c0 -5 -4 -10 -10 -10 -5 0 -10 5 -10 10 0 6 5 10 10
10 6 0 10 -4 10 -10z m80 0 c0 -5 -4 -10 -10 -10 -5 0 -10 5 -10 10 0 6 5 10
10 10 6 0 10 -4 10 -10z m80 0 c0 -5 -4 -10 -10 -10 -5 0 -10 5 -10 10 0 6 5
10 10 10 6 0 10 -4 10 -10z m80 0 c0 -5 -4 -10 -10 -10 -5 0 -10 5 -10 10 0 6
5 10 10 10 6 0 10 -4 10 -10z m80 0 c0 -5 -4 -10 -10 -10 -5 0 -10 5 -10 10 0
6 5 10 10 10 6 0 10 -4 10 -10z m80 0 c0 -5 -4 -10 -10 -10 -5 0 -10 5 -10 10
0 6 5 10 10 10 6 0 10 -4 10 -10z m80 0 c0 -5 -4 -10 -10 -10 -5 0 -10 5 -10
10 0 6 5 10 10 10 6 0 10 -4 10 -10z m80 0 c0 -5 -4 -10 -10 -10 -5 0 -10 5
-10 10 0 6 5 10 10 10 6 0 10 -4 10 -10z m80 0 c0 -5 -4 -10 -10 -10 -5 0 -10
5 -10 10 0 6 5 10 10 10 6 0 10 -4 10 -10z m80 0 c0 -5 -4 -10 -10 -10 -5 0
-10 5 -10 10 0 6 5 10 10 10 6 0 10 -4 10 -10z m80 0 c0 -5 -4 -10 -10 -10 -5
0 -10 5 -10 10 0 6 5 10 10 10 6 0 10 -4 10 -10z m80 0 c0 -5 -4 -10 -10 -10
-5 0 -10 5 -10 10 0 6 5 10 10 10 6 0 10 -4 10 -10z m80 0 c0 -5 -4 -10 -10
-10 -5 0 -10 5 -10 10 0 6 5 10 10 10 6 0 10 -4 10 -10z m80 0 c0 -5 -4 -10
-10 -10 -5 0 -10 5 -10 10 0 6 5 10 10 10 6 0 10 -4 10 -10z m80 0 c0 -5 -4
-10 -10 -10 -5 0 -10 5 -10 10 0 6 5 10 10 10 6 0 10 -4 10 -10z m80 0 c0 -5
-4 -10 -10 -10 -5 0 -10 5 -10 10 0 6 5 10 10 10 6 0 10 -4 10 -10z m80 0 c0
-5 -4 -10 -10 -10 -5 0 -10 5 -10 10 0 6 5 10 10 10 6 0 10 -4 10 -10z m80 0
c0 -5 -4 -10 -10 -10 -5 0 -10 5 -10 10 0 6 5 10 10 10 6 0 10 -4 10 -10z m80
0 c0 -5 -4 -10 -10 -10 -5 0 -10 5 -10 10 0 6 5 10 10 10 6 0 10 -4 10 -10z
m80 0 c0 -5 -4 -10 -10 -10 -5 0 -10 5 -10 10 0 6 5 10 10 10 6 0 10 -4 10
-10z m80 0 c0 -5 -4 -10 -10 -10 -5 0 -10 5 -10 10 0 6 5 10 10 10 6 0 10 -4
10 -10z m80 0 c0 -5 -4 -10 -10 -10 -5 0 -10 5 -10 10 0 6 5 10 10 10 6 0 10
-4 10 -10z m80 0 c0 -5 -4 -10 -10 -10 -5 0 -10 5 -10 10 0 6 5 10 10 10 6 0
10 -4 10 -10z m730 -35 c0 -5 -5 -3 -10 5 -5 8 -10 20 -10 25 0 6 5 3 10 -5 5
-8 10 -19 10 -25z m560 0 c0 -5 -5 -3 -10 5 -5 8 -10 20 -10 25 0 6 5 3 10 -5
5 -8 10 -19 10 -25z m960 0 c0 -5 -5 -3 -10 5 -5 8 -10 20 -10 25 0 6 5 3 10
-5 5 -8 10 -19 10 -25z m800 0 c0 -5 -5 -3 -10 5 -5 8 -10 20 -10 25 0 6 5 3
10 -5 5 -8 10 -19 10 -25z m560 0 c0 -5 -5 -3 -10 5 -5 8 -10 20 -10 25 0 6 5
3 10 -5 5 -8 10 -19 10 -25z m560 0 c0 -5 -5 -3 -10 5 -5 8 -10 20 -10 25 0 6
5 3 10 -5 5 -8 10 -19 10 -25z m-3389 -2 c-12 -20 -14 -14 -5 12 4 9 9 14 11
11 3 -2 0 -13 -6 -23z m560 0 c-12 -20 -14 -14 -5 12 4 9 9 14 11 11 3 -2 0
-13 -6 -23z m960 0 c-12 -20 -14 -14 -5 12 4 9 9 14 11 11 3 -2 0 -13 -6 -23z
m800 0 c-12 -20 -14 -14 -5 12 4 9 9 14 11 11 3 -2 0 -13 -6 -23z m560 0 c-12
-20 -14 -14 -5 12 4 9 9 14 11 11 3 -2 0 -13 -6 -23z m560 0 c-12 -20 -14 -14
-5 12 4 9 9 14 11 11 3 -2 0 -13 -6 -23z m-2201 -152 c0 -46 -1 -48 -27 -47
-18 1 -29 7 -31 19 -4 20 14 47 31 47 6 0 2 -6 -8 -14 -12 -8 -16 -19 -12 -30
12 -30 32 -11 35 32 4 57 12 53 12 -7z m352 -2 c-1 -22 -3 -44 -6 -47 -3 -3
-6 19 -6 48 0 29 3 51 6 47 4 -3 6 -25 6 -48z m188 7 c0 -26 5 -46 13 -49 7
-3 5 -6 -5 -6 -15 -1 -18 7 -18 43 0 34 -4 46 -17 49 -14 4 -12 5 5 6 20 1 22
-4 22 -43z m395 9 c16 0 20 -7 20 -30 0 -26 -4 -30 -27 -31 -27 -1 -28 1 -27
50 1 31 4 43 7 31 4 -11 16 -20 27 -20z m568 -8 c19 16 20 16 8 0 -12 -15 -11
-20 5 -40 19 -22 19 -22 -2 -4 -11 9 -23 17 -27 17 -3 0 -8 -8 -10 -17 -3 -10
-4 7 -4 37 0 33 2 42 4 22 4 -34 5 -34 26 -15z m-5389 -9 c-9 -59 -14 -60 -14
-5 0 26 5 47 10 47 6 0 8 -16 4 -42z m45 -5 c-1 -47 -1 -47 -9 -14 -7 31 -4
61 6 61 2 0 4 -21 3 -47z m35 5 c-9 -59 -14 -60 -14 -5 0 26 5 47 10 47 6 0 8
-16 4 -42z m45 -5 c-1 -47 -1 -47 -9 -14 -7 31 -4 61 6 61 2 0 4 -21 3 -47z
m35 5 c-9 -59 -14 -60 -14 -5 0 26 5 47 10 47 6 0 8 -16 4 -42z m45 -5 c-1
-47 -1 -47 -9 -14 -7 31 -4 61 6 61 2 0 4 -21 3 -47z m35 5 c-9 -59 -14 -60
-14 -5 0 26 5 47 10 47 6 0 8 -16 4 -42z m45 -5 c-1 -47 -1 -47 -9 -14 -7 31
-4 61 6 61 2 0 4 -21 3 -47z m35 5 c-9 -59 -14 -60 -14 -5 0 26 5 47 10 47 6
0 8 -16 4 -42z m45 -5 c-1 -47 -1 -47 -9 -14 -7 31 -4 61 6 61 2 0 4 -21 3
-47z m35 5 c-9 -59 -14 -60 -14 -5 0 26 5 47 10 47 6 0 8 -16 4 -42z m45 -5
c-1 -47 -1 -47 -9 -14 -7 31 -4 61 6 61 2 0 4 -21 3 -47z m35 5 c-9 -59 -14
-60 -14 -5 0 26 5 47 10 47 6 0 8 -16 4 -42z m45 -5 c-1 -47 -1 -47 -9 -14 -7
31 -4 61 6 61 2 0 4 -21 3 -47z m35 5 c-9 -59 -14 -60 -14 -5 0 26 5 47 10 47
6 0 8 -16 4 -42z m45 -5 c-1 -47 -1 -47 -9 -14 -7 31 -4 61 6 61 2 0 4 -21 3
-47z m35 5 c-9 -59 -14 -60 -14 -5 0 26 5 47 10 47 6 0 8 -16 4 -42z m45 -5
c-1 -47 -1 -47 -9 -14 -7 31 -4 61 6 61 2 0 4 -21 3 -47z m35 5 c-9 -59 -14
-60 -14 -5 0 26 5 47 10 47 6 0 8 -16 4 -42z m45 -5 c-1 -47 -1 -47 -9 -14 -7
31 -4 61 6 61 2 0 4 -21 3 -47z m35 5 c-9 -59 -14 -60 -14 -5 0 26 5 47 10 47
6 0 8 -16 4 -42z m45 -5 c-1 -47 -1 -47 -9 -14 -7 31 -4 61 6 61 2 0 4 -21 3
-47z m35 5 c-9 -59 -14 -60 -14 -5 0 26 5 47 10 47 6 0 8 -16 4 -42z m45 -5
c-1 -47 -1 -47 -9 -14 -7 31 -4 61 6 61 2 0 4 -21 3 -47z m35 5 c-9 -59 -14
-60 -14 -5 0 26 5 47 10 47 6 0 8 -16 4 -42z m45 -5 c-1 -47 -1 -47 -9 -14 -7
31 -4 61 6 61 2 0 4 -21 3 -47z m35 5 c-9 -59 -14 -60 -14 -5 0 26 5 47 10 47
6 0 8 -16 4 -42z m45 -5 c-1 -47 -1 -47 -9 -14 -7 31 -4 61 6 61 2 0 4 -21 3
-47z m35 5 c-9 -59 -14 -60 -14 -5 0 26 5 47 10 47 6 0 8 -16 4 -42z m45 -5
c-1 -47 -1 -47 -9 -14 -7 31 -4 61 6 61 2 0 4 -21 3 -47z m35 5 c-9 -59 -14
-60 -14 -5 0 26 5 47 10 47 6 0 8 -16 4 -42z m45 -5 c-1 -47 -1 -47 -9 -14 -7
31 -4 61 6 61 2 0 4 -21 3 -47z m35 5 c-9 -59 -14 -60 -14 -5 0 26 5 47 10 47
6 0 8 -16 4 -42z m45 -5 c-1 -47 -1 -47 -9 -14 -7 31 -4 61 6 61 2 0 4 -21 3
-47z m35 5 c-9 -59 -14 -60 -14 -5 0 26 5 47 10 47 6 0 8 -16 4 -42z m45 -5
c-1 -47 -1 -47 -9 -14 -7 31 -4 61 6 61 2 0 4 -21 3 -47z m35 5 c-9 -59 -14
-60 -14 -5 0 26 5 47 10 47 6 0 8 -16 4 -42z m45 -5 c-1 -47 -1 -47 -9 -14 -7
31 -4 61 6 61 2 0 4 -21 3 -47z m35 5 c-9 -59 -14 -60 -14 -5 0 26 5 47 10 47
6 0 8 -16 4 -42z m45 -5 c-1 -47 -1 -47 -9 -14 -7 31 -4 61 6 61 2 0 4 -21 3
-47z m35 5 c-9 -59 -14 -60 -14 -5 0 26 5 47 10 47 6 0 8 -16 4 -42z m45 -5
c-1 -47 -1 -47 -9 -14 -7 31 -4 61 6 61 2 0 4 -21 3 -47z m35 5 c-9 -59 -14
-60 -14 -5 0 26 5 47 10 47 6 0 8 -16 4 -42z m45 -5 c-1 -47 -1 -47 -9 -14 -7
31 -4 61 6 61 2 0 4 -21 3 -47z m35 5 c-9 -59 -14 -60 -14 -5 0 26 5 47 10 47
6 0 8 -16 4 -42z m45 -5 c-1 -47 -1 -47 -9 -14 -7 31 -4 61 6 61 2 0 4 -21 3
-47z m35 5 c-9 -59 -14 -60 -14 -5 0 26 5 47 10 47 6 0 8 -16 4 -42z m45 -5
c-1 -47 -1 -47 -9 -14 -7 31 -4 61 6 61 2 0 4 -21 3 -47z m1555 5 c-9 -59 -14
-60 -14 -5 0 26 5 47 10 47 6 0 8 -16 4 -42z m45 -5 c-1 -47 -1 -47 -9 -14 -7
31 -4 61 6 61 2 0 4 -21 3 -47z m711 24 c12 -4 11 -6 -2 -6 -23 -1 -25 -47 -3
-54 11 -4 10 -4 -2 -3 -12 1 -19 11 -21 29 -2 15 -8 27 -13 27 -5 0 -4 6 3 14
7 8 15 10 18 6 3 -4 12 -10 20 -13z m891 2 c16 -31 -3 -69 -36 -69 -23 0 -25
4 -25 45 0 41 2 45 25 45 15 0 29 -8 36 -21z m389 -2 c12 -4 11 -6 -2 -6 -23
-1 -25 -47 -3 -54 11 -4 10 -4 -2 -3 -12 1 -19 11 -21 29 -2 15 -8 27 -13 27
-5 0 -4 6 3 14 7 8 15 10 18 6 3 -4 12 -10 20 -13z m404 6 c4 -10 -2 -25 -15
-39 l-21 -22 24 -5 c17 -3 14 -5 -11 -6 l-35 -1 28 29 c30 31 27 56 -5 48 -11
-3 -17 -1 -13 4 9 15 41 10 48 -8z m84 -26 c2 -27 -1 -39 -13 -43 -35 -14 -61
46 -33 74 23 23 43 9 46 -31z m62 4 c0 -22 5 -42 13 -44 6 -3 -1 -6 -18 -6
-21 0 -26 2 -16 8 9 6 12 21 9 45 -2 20 0 36 4 36 4 0 8 -18 8 -39z m100 30
c0 -6 -5 -13 -12 -17 -6 -4 -8 -3 -4 4 4 6 -5 12 -21 15 -26 4 -26 4 5 6 17 0
32 -3 32 -8z m-2562 -33 c2 -12 -5 -18 -25 -20 l-28 -4 25 -12 c17 -8 19 -11
6 -9 -28 3 -43 32 -26 52 16 19 44 16 48 -7z m77 -13 c0 -23 -5 -30 -19 -30
-28 0 -43 29 -26 50 21 25 45 14 45 -20z m92 13 c-3 -8 -6 -5 -6 6 -1 11 2 17
5 13 3 -3 4 -12 1 -19z m71 0 c2 -12 -5 -18 -25 -20 l-28 -4 25 -12 c17 -8 19
-11 6 -9 -28 3 -43 32 -26 52 16 19 44 16 48 -7z m249 0 c-3 -8 -6 -5 -6 6 -1
11 2 17 5 13 3 -3 4 -12 1 -19z m46 15 c-7 -2 -19 -2 -25 0 -7 3 -2 5 12 5 14
0 19 -2 13 -5z m183 -34 c2 -31 1 -31 -3 -4 -3 16 -10 34 -16 38 -8 6 -7 7 3
4 9 -2 16 -17 16 -38z m239 6 c0 -23 -5 -30 -19 -30 -28 0 -43 29 -26 50 21
25 45 14 45 -20z m71 10 c7 17 13 25 14 18 0 -17 -22 -63 -30 -63 -4 0 -10 8
-13 18 -2 9 -8 26 -12 37 -3 11 2 7 11 -10 l17 -30 13 30z m92 3 c2 -12 -5
-18 -25 -20 l-28 -4 25 -12 c17 -8 19 -11 6 -9 -28 3 -43 32 -26 52 16 19 44
16 48 -7z m228 -7 c19 35 16 10 -4 -30 -9 -19 -24 -37 -32 -39 -10 -3 -9 1 4
10 17 14 17 16 2 46 -21 40 -20 56 1 18 l15 -29 14 24z m224 -26 c8 0 18 13
21 30 7 30 7 30 8 -6 1 -33 -1 -36 -26 -35 -25 1 -28 5 -30 36 -1 34 -1 34 5
5 4 -17 14 -30 22 -30z m72 15 c-6 -41 -12 -38 -12 6 0 19 4 33 8 30 5 -3 7
-19 4 -36z m113 5 c0 -23 -5 -30 -19 -30 -28 0 -43 29 -26 50 21 25 45 14 45
-20z m241 -5 c2 -34 1 -34 -3 -3 -2 18 -11 34 -21 37 -12 3 -11 4 3 3 16 -2
20 -10 21 -37z m46 0 c-6 -41 -12 -38 -12 6 0 19 4 33 8 30 5 -3 7 -19 4 -36z
m-1913 -3 c-14 -30 -29 -26 -28 6 0 21 1 21 8 3 7 -19 8 -18 14 4 3 13 9 22
12 18 3 -3 0 -17 -6 -31z m320 0 c-14 -30 -29 -26 -28 6 0 21 1 21 8 3 7 -19
8 -18 14 4 3 13 9 22 12 18 3 -3 0 -17 -6 -31z m-3989 13 c0 -5 -4 -10 -10
-10 -5 0 -10 5 -10 10 0 6 5 10 10 10 6 0 10 -4 10 -10z m80 0 c0 -5 -4 -10
-10 -10 -5 0 -10 5 -10 10 0 6 5 10 10 10 6 0 10 -4 10 -10z m80 0 c0 -5 -4
-10 -10 -10 -5 0 -10 5 -10 10 0 6 5 10 10 10 6 0 10 -4 10 -10z m80 0 c0 -5
-4 -10 -10 -10 -5 0 -10 5 -10 10 0 6 5 10 10 10 6 0 10 -4 10 -10z m80 0 c0
-5 -4 -10 -10 -10 -5 0 -10 5 -10 10 0 6 5 10 10 10 6 0 10 -4 10 -10z m80 0
c0 -5 -4 -10 -10 -10 -5 0 -10 5 -10 10 0 6 5 10 10 10 6 0 10 -4 10 -10z m80
0 c0 -5 -4 -10 -10 -10 -5 0 -10 5 -10 10 0 6 5 10 10 10 6 0 10 -4 10 -10z
m80 0 c0 -5 -4 -10 -10 -10 -5 0 -10 5 -10 10 0 6 5 10 10 10 6 0 10 -4 10
-10z m80 0 c0 -5 -4 -10 -10 -10 -5 0 -10 5 -10 10 0 6 5 10 10 10 6 0 10 -4
10 -10z m80 0 c0 -5 -4 -10 -10 -10 -5 0 -10 5 -10 10 0 6 5 10 10 10 6 0 10
-4 10 -10z m80 0 c0 -5 -4 -10 -10 -10 -5 0 -10 5 -10 10 0 6 5 10 10 10 6 0
10 -4 10 -10z m80 0 c0 -5 -4 -10 -10 -10 -5 0 -10 5 -10 10 0 6 5 10 10 10 6
0 10 -4 10 -10z m80 0 c0 -5 -4 -10 -10 -10 -5 0 -10 5 -10 10 0 6 5 10 10 10
6 0 10 -4 10 -10z m80 0 c0 -5 -4 -10 -10 -10 -5 0 -10 5 -10 10 0 6 5 10 10
10 6 0 10 -4 10 -10z m80 0 c0 -5 -4 -10 -10 -10 -5 0 -10 5 -10 10 0 6 5 10
10 10 6 0 10 -4 10 -10z m80 0 c0 -5 -4 -10 -10 -10 -5 0 -10 5 -10 10 0 6 5
10 10 10 6 0 10 -4 10 -10z m80 0 c0 -5 -4 -10 -10 -10 -5 0 -10 5 -10 10 0 6
5 10 10 10 6 0 10 -4 10 -10z m80 0 c0 -5 -4 -10 -10 -10 -5 0 -10 5 -10 10 0
6 5 10 10 10 6 0 10 -4 10 -10z m80 0 c0 -5 -4 -10 -10 -10 -5 0 -10 5 -10 10
0 6 5 10 10 10 6 0 10 -4 10 -10z m80 0 c0 -5 -4 -10 -10 -10 -5 0 -10 5 -10
10 0 6 5 10 10 10 6 0 10 -4 10 -10z m80 0 c0 -5 -4 -10 -10 -10 -5 0 -10 5
-10 10 0 6 5 10 10 10 6 0 10 -4 10 -10z m80 0 c0 -5 -4 -10 -10 -10 -5 0 -10
5 -10 10 0 6 5 10 10 10 6 0 10 -4 10 -10z m80 0 c0 -5 -4 -10 -10 -10 -5 0
-10 5 -10 10 0 6 5 10 10 10 6 0 10 -4 10 -10z m80 0 c0 -5 -4 -10 -10 -10 -5
0 -10 5 -10 10 0 6 5 10 10 10 6 0 10 -4 10 -10z m1600 0 c0 -5 -4 -10 -10
-10 -5 0 -10 5 -10 10 0 6 5 10 10 10 6 0 10 -4 10 -10z m2063 -7 c-18 -7 -16
-21 5 -26 15 -4 15 -5 0 -6 -9 0 -20 4 -23 9 -8 13 3 30 18 29 9 0 9 -2 0 -6z
m-1803 -18 c0 -8 -4 -15 -10 -15 -5 0 -10 7 -10 15 0 8 5 15 10 15 6 0 10 -7
10 -15z m320 0 c0 -8 -4 -15 -10 -15 -5 0 -10 7 -10 15 0 8 5 15 10 15 6 0 10
-7 10 -15z m1660 -5 c0 -5 -4 -10 -10 -10 -5 0 -10 5 -10 10 0 6 5 10 10 10 6
0 10 -4 10 -10z m-5706 -162 c-9 -59 -14 -60 -14 -5 0 26 5 47 10 47 6 0 8
-16 4 -42z m45 -5 c-1 -47 -1 -47 -9 -14 -7 31 -4 61 6 61 2 0 4 -21 3 -47z
m35 5 c-9 -59 -14 -60 -14 -5 0 26 5 47 10 47 6 0 8 -16 4 -42z m45 -5 c-1
-47 -1 -47 -9 -14 -7 31 -4 61 6 61 2 0 4 -21 3 -47z m35 5 c-9 -59 -14 -60
-14 -5 0 26 5 47 10 47 6 0 8 -16 4 -42z m45 -5 c-1 -47 -1 -47 -9 -14 -7 31
-4 61 6 61 2 0 4 -21 3 -47z m35 5 c-9 -59 -14 -60 -14 -5 0 26 5 47 10 47 6
0 8 -16 4 -42z m45 -5 c-1 -47 -1 -47 -9 -14 -7 31 -4 61 6 61 2 0 4 -21 3
-47z m1395 5 c-9 -59 -14 -60 -14 -5 0 26 5 47 10 47 6 0 8 -16 4 -42z m45 -5
c-1 -47 -1 -47 -9 -14 -7 31 -4 61 6 61 2 0 4 -21 3 -47z m35 5 c-9 -59 -14
-60 -14 -5 0 26 5 47 10 47 6 0 8 -16 4 -42z m45 -5 c-1 -47 -1 -47 -9 -14 -7
31 -4 61 6 61 2 0 4 -21 3 -47z m35 5 c-9 -59 -14 -60 -14 -5 0 26 5 47 10 47
6 0 8 -16 4 -42z m45 -5 c-1 -47 -1 -47 -9 -14 -7 31 -4 61 6 61 2 0 4 -21 3
-47z m35 5 c-9 -59 -14 -60 -14 -5 0 26 5 47 10 47 6 0 8 -16 4 -42z m45 -5
c-1 -47 -1 -47 -9 -14 -7 31 -4 61 6 61 2 0 4 -21 3 -47z m-1619 17 c0 -5 -4
-10 -10 -10 -5 0 -10 5 -10 10 0 6 5 10 10 10 6 0 10 -4 10 -10z m80 0 c0 -5
-4 -10 -10 -10 -5 0 -10 5 -10 10 0 6 5 10 10 10 6 0 10 -4 10 -10z m320 0 c0
-5 -4 -10 -10 -10 -5 0 -10 5 -10 10 0 6 5 10 10 10 6 0 10 -4 10 -10z m80 0
c0 -5 -4 -10 -10 -10 -5 0 -10 5 -10 10 0 6 5 10 10 10 6 0 10 -4 10 -10z m80
0 c0 -5 -4 -10 -10 -10 -5 0 -10 5 -10 10 0 6 5 10 10 10 6 0 10 -4 10 -10z
m80 0 c0 -5 -4 -10 -10 -10 -5 0 -10 5 -10 10 0 6 5 10 10 10 6 0 10 -4 10
-10z m80 0 c0 -5 -4 -10 -10 -10 -5 0 -10 5 -10 10 0 6 5 10 10 10 6 0 10 -4
10 -10z m80 0 c0 -5 -4 -10 -10 -10 -5 0 -10 5 -10 10 0 6 5 10 10 10 6 0 10
-4 10 -10z m80 0 c0 -5 -4 -10 -10 -10 -5 0 -10 5 -10 10 0 6 5 10 10 10 6 0
10 -4 10 -10z m320 0 c0 -5 -4 -10 -10 -10 -5 0 -10 5 -10 10 0 6 5 10 10 10
6 0 10 -4 10 -10z m80 0 c0 -5 -4 -10 -10 -10 -5 0 -10 5 -10 10 0 6 5 10 10
10 6 0 10 -4 10 -10z m-1600 -20 c0 -5 -4 -10 -10 -10 -5 0 -10 5 -10 10 0 6
5 10 10 10 6 0 10 -4 10 -10z m80 0 c0 -5 -4 -10 -10 -10 -5 0 -10 5 -10 10 0
6 5 10 10 10 6 0 10 -4 10 -10z m80 0 c0 -5 -4 -10 -10 -10 -5 0 -10 5 -10 10
0 6 5 10 10 10 6 0 10 -4 10 -10z m80 0 c0 -5 -4 -10 -10 -10 -5 0 -10 5 -10
10 0 6 5 10 10 10 6 0 10 -4 10 -10z m248 3 c-10 -2 -26 -2 -35 0 -10 3 -2 5
17 5 19 0 27 -2 18 -5z m160 0 c-10 -2 -26 -2 -35 0 -10 3 -2 5 17 5 19 0 27
-2 18 -5z m640 0 c-10 -2 -26 -2 -35 0 -10 3 -2 5 17 5 19 0 27 -2 18 -5z
m160 0 c-10 -2 -26 -2 -35 0 -10 3 -2 5 17 5 19 0 27 -2 18 -5z m232 -3 c0 -5
-4 -10 -10 -10 -5 0 -10 5 -10 10 0 6 5 10 10 10 6 0 10 -4 10 -10z m80 0 c0
-5 -4 -10 -10 -10 -5 0 -10 5 -10 10 0 6 5 10 10 10 6 0 10 -4 10 -10z m80 0
c0 -5 -4 -10 -10 -10 -5 0 -10 5 -10 10 0 6 5 10 10 10 6 0 10 -4 10 -10z m80
0 c0 -5 -4 -10 -10 -10 -5 0 -10 5 -10 10 0 6 5 10 10 10 6 0 10 -4 10 -10z
m-1600 -30 c0 -5 -4 -10 -10 -10 -5 0 -10 5 -10 10 0 6 5 10 10 10 6 0 10 -4
10 -10z m80 0 c0 -5 -4 -10 -10 -10 -5 0 -10 5 -10 10 0 6 5 10 10 10 6 0 10
-4 10 -10z m320 0 c0 -5 -4 -10 -10 -10 -5 0 -10 5 -10 10 0 6 5 10 10 10 6 0
10 -4 10 -10z m80 0 c0 -5 -4 -10 -10 -10 -5 0 -10 5 -10 10 0 6 5 10 10 10 6
0 10 -4 10 -10z m80 0 c0 -5 -4 -10 -10 -10 -5 0 -10 5 -10 10 0 6 5 10 10 10
6 0 10 -4 10 -10z m80 0 c0 -5 -4 -10 -10 -10 -5 0 -10 5 -10 10 0 6 5 10 10
10 6 0 10 -4 10 -10z m80 0 c0 -5 -4 -10 -10 -10 -5 0 -10 5 -10 10 0 6 5 10
10 10 6 0 10 -4 10 -10z m80 0 c0 -5 -4 -10 -10 -10 -5 0 -10 5 -10 10 0 6 5
10 10 10 6 0 10 -4 10 -10z m80 0 c0 -5 -4 -10 -10 -10 -5 0 -10 5 -10 10 0 6
5 10 10 10 6 0 10 -4 10 -10z m320 0 c0 -5 -4 -10 -10 -10 -5 0 -10 5 -10 10
0 6 5 10 10 10 6 0 10 -4 10 -10z m80 0 c0 -5 -4 -10 -10 -10 -5 0 -10 5 -10
10 0 6 5 10 10 10 6 0 10 -4 10 -10z m810 -114 c0 -3 -4 -8 -10 -11 -5 -3 -10
-1 -10 4 0 6 5 11 10 11 6 0 10 -2 10 -4z m67 -33 c-3 -10 -5 -4 -5 12 0 17 2
24 5 18 2 -7 2 -21 0 -30z m643 -7 c0 -26 5 -46 13 -49 7 -3 5 -6 -5 -6 -15
-1 -18 7 -18 43 0 34 -4 46 -17 49 -14 4 -12 5 5 6 20 1 22 -4 22 -43z m212
-7 c-1 -22 -3 -44 -6 -47 -3 -3 -6 19 -6 48 0 29 3 51 6 47 4 -3 6 -25 6 -48z
m448 2 c0 -46 -1 -48 -27 -47 -18 1 -29 7 -31 19 -4 20 14 47 31 47 6 0 2 -6
-8 -14 -12 -8 -16 -19 -12 -30 12 -30 32 -11 35 32 4 57 12 53 12 -7z m870 37
c-24 -10 -24 -10 -5 -18 17 -7 17 -9 3 -9 -13 -1 -18 -10 -19 -33 l-2 -33 -6
35 c-8 38 10 70 38 69 10 0 6 -4 -9 -11z m627 -25 c-3 -10 -5 -4 -5 12 0 17 2
24 5 18 2 -7 2 -21 0 -30z m253 33 c0 -3 -4 -8 -10 -11 -5 -3 -10 -1 -10 4 0
6 5 11 10 11 6 0 10 -2 10 -4z m67 -33 c-3 -10 -5 -4 -5 12 0 17 2 24 5 18 2
-7 2 -21 0 -30z m160 0 c-3 -10 -5 -4 -5 12 0 17 2 24 5 18 2 -7 2 -21 0 -30z
m-5703 -15 c-9 -59 -14 -60 -14 -5 0 26 5 47 10 47 6 0 8 -16 4 -42z m45 -5
c-1 -47 -1 -47 -9 -14 -7 31 -4 61 6 61 2 0 4 -21 3 -47z m35 5 c-9 -59 -14
-60 -14 -5 0 26 5 47 10 47 6 0 8 -16 4 -42z m45 -5 c-1 -47 -1 -47 -9 -14 -7
31 -4 61 6 61 2 0 4 -21 3 -47z m1555 5 c-9 -59 -14 -60 -14 -5 0 26 5 47 10
47 6 0 8 -16 4 -42z m45 -5 c-1 -47 -1 -47 -9 -14 -7 31 -4 61 6 61 2 0 4 -21
3 -47z m35 5 c-9 -59 -14 -60 -14 -5 0 26 5 47 10 47 6 0 8 -16 4 -42z m45 -5
c-1 -47 -1 -47 -9 -14 -7 31 -4 61 6 61 2 0 4 -21 3 -47z m871 24 c12 -4 11
-6 -2 -6 -23 -1 -25 -47 -3 -54 11 -4 10 -4 -2 -3 -12 1 -19 11 -21 29 -2 15
-8 27 -13 27 -5 0 -4 6 3 14 7 8 15 10 18 6 3 -4 12 -10 20 -13z m160 0 c12
-4 11 -6 -2 -6 -23 -1 -25 -47 -3 -54 11 -4 10 -4 -2 -3 -12 1 -19 11 -21 29
-2 15 -8 27 -13 27 -5 0 -4 6 3 14 7 8 15 10 18 6 3 -4 12 -10 20 -13z m1040
0 c12 -4 11 -6 -2 -6 -23 -1 -25 -47 -3 -54 11 -4 10 -4 -2 -3 -12 1 -19 11
-21 29 -2 15 -8 27 -13 27 -5 0 -4 6 3 14 7 8 15 10 18 6 3 -4 12 -10 20 -13z
m1040 0 c12 -4 11 -6 -2 -6 -23 -1 -25 -47 -3 -54 11 -4 10 -4 -2 -3 -12 1
-19 11 -21 29 -2 15 -8 27 -13 27 -5 0 -4 6 3 14 7 8 15 10 18 6 3 -4 12 -10
20 -13z m1048 -20 c2 -27 -1 -39 -13 -43 -35 -14 -61 46 -33 74 23 23 43 9 46
-31z m-5698 13 c0 -5 -4 -10 -10 -10 -5 0 -10 5 -10 10 0 6 5 10 10 10 6 0 10
-4 10 -10z m480 0 c0 -5 -4 -10 -10 -10 -5 0 -10 5 -10 10 0 6 5 10 10 10 6 0
10 -4 10 -10z m80 0 c0 -5 -4 -10 -10 -10 -5 0 -10 5 -10 10 0 6 5 10 10 10 6
0 10 -4 10 -10z m80 0 c0 -5 -4 -10 -10 -10 -5 0 -10 5 -10 10 0 6 5 10 10 10
6 0 10 -4 10 -10z m80 0 c0 -5 -4 -10 -10 -10 -5 0 -10 5 -10 10 0 6 5 10 10
10 6 0 10 -4 10 -10z m80 0 c0 -5 -4 -10 -10 -10 -5 0 -10 5 -10 10 0 6 5 10
10 10 6 0 10 -4 10 -10z m480 0 c0 -5 -4 -10 -10 -10 -5 0 -10 5 -10 10 0 6 5
10 10 10 6 0 10 -4 10 -10z m952 -1 c-30 -12 -25 -41 8 -51 l25 -7 -24 2 c-48
4 -50 68 -2 66 10 0 8 -3 -7 -10z m104 -29 c2 -34 1 -34 -3 -3 -2 18 -11 34
-21 37 -12 3 -11 4 3 3 16 -2 20 -10 21 -37z m320 0 c2 -34 1 -34 -3 -3 -2 18
-11 34 -21 37 -12 3 -11 4 3 3 16 -2 20 -10 21 -37z m57 33 c-7 -2 -19 -2 -25
0 -7 3 -2 5 12 5 14 0 19 -2 13 -5z m245 0 c-24 -6 -23 -19 3 -26 27 -7 20
-32 -9 -33 -20 -2 -20 -1 -2 3 26 6 26 19 0 26 -28 7 -26 37 3 36 16 -1 18 -2
5 -6z m98 -34 c2 -31 1 -31 -3 -4 -3 16 -10 34 -16 38 -8 6 -7 7 3 4 9 -2 16
-17 16 -38z m80 1 c2 -34 1 -34 -3 -3 -2 18 -11 34 -21 37 -12 3 -11 4 3 3 16
-2 20 -10 21 -37z m79 5 c0 -23 -5 -31 -22 -33 -12 -2 -24 -11 -26 -20 -3 -9
-5 6 -6 34 -1 49 0 51 27 50 23 -1 27 -5 27 -31z m83 13 c2 -12 -5 -18 -25
-20 l-28 -4 25 -12 c17 -8 19 -11 6 -9 -28 3 -43 32 -26 52 16 19 44 16 48 -7z
m240 0 c2 -12 -5 -18 -25 -20 l-28 -4 25 -12 c17 -8 19 -11 6 -9 -28 3 -43 32
-26 52 16 19 44 16 48 -7z m160 0 c2 -12 -5 -18 -25 -20 l-28 -4 25 -12 c17
-8 19 -11 6 -9 -28 3 -43 32 -26 52 16 19 44 16 48 -7z m44 -18 c-6 -41 -12
-38 -12 6 0 19 4 33 8 30 5 -3 7 -19 4 -36z m124 0 l2 -35 -5 33 c-2 17 -8 32
-14 32 -5 0 -10 -15 -11 -32 l-1 -33 -4 33 c-2 17 -8 32 -13 32 -5 0 -11 -15
-13 -32 -4 -33 -4 -33 -5 4 -2 37 -1 38 31 35 29 -2 32 -5 33 -37z m47 33 c-7
-2 -19 -2 -25 0 -7 3 -2 5 12 5 14 0 19 -2 13 -5z m59 -33 c-6 -41 -12 -38
-12 6 0 19 4 33 8 30 5 -3 7 -19 4 -36z m44 -1 c2 -31 1 -31 -3 -4 -3 16 -10
34 -16 38 -8 6 -7 7 3 4 9 -2 16 -17 16 -38z m82 19 c2 -12 -5 -18 -25 -20
l-28 -4 25 -12 c17 -8 19 -11 6 -9 -28 3 -43 32 -26 52 16 19 44 16 48 -7z
m44 -18 c-6 -41 -12 -38 -12 6 0 19 4 33 8 30 5 -3 7 -19 4 -36z m248 -15 c8
0 18 13 21 30 7 30 7 30 8 -6 1 -33 -1 -36 -26 -35 -25 1 -28 5 -30 36 -1 34
-1 34 5 5 4 -17 14 -30 22 -30z m62 15 c-6 -41 -12 -38 -12 6 0 19 4 33 8 30
5 -3 7 -19 4 -36z m44 -1 c2 -31 1 -31 -3 -4 -3 16 -10 34 -16 38 -8 6 -7 7 3
4 9 -2 16 -17 16 -38z m56 30 c-30 -12 -25 -41 8 -51 l25 -7 -24 2 c-48 4 -50
68 -2 66 10 0 8 -3 -7 -10z m161 4 c-7 -2 -19 -2 -25 0 -7 3 -2 5 12 5 14 0
19 -2 13 -5z m102 -28 c0 -23 -5 -30 -19 -30 -28 0 -43 29 -26 50 21 25 45 14
45 -20z m37 -5 c-6 -41 -12 -38 -12 6 0 19 4 33 8 30 5 -3 7 -19 4 -36z m44
-1 c2 -31 1 -31 -3 -4 -3 16 -10 34 -16 38 -8 6 -7 7 3 4 9 -2 16 -17 16 -38z
m144 31 c0 -5 -4 -10 -10 -10 -5 0 -10 5 -10 10 0 6 5 10 10 10 6 0 10 -4 10
-10z m336 -30 c2 -34 1 -34 -3 -3 -2 18 -11 34 -21 37 -12 3 -11 4 3 3 16 -2
20 -10 21 -37z m144 30 c0 -5 -4 -10 -10 -10 -5 0 -10 5 -10 10 0 6 5 10 10
10 6 0 10 -4 10 -10z m-5600 -10 c8 -5 11 -10 5 -10 -5 0 -17 5 -25 10 -8 5
-10 10 -5 10 6 0 17 -5 25 -10z m160 0 c8 -5 11 -10 5 -10 -5 0 -17 5 -25 10
-8 5 -10 10 -5 10 6 0 17 -5 25 -10z m320 0 c8 -5 11 -10 5 -10 -5 0 -17 5
-25 10 -8 5 -10 10 -5 10 6 0 17 -5 25 -10z m480 0 c8 -5 11 -10 5 -10 -5 0
-17 5 -25 10 -8 5 -10 10 -5 10 6 0 17 -5 25 -10z m320 0 c8 -5 11 -10 5 -10
-5 0 -17 5 -25 10 -8 5 -10 10 -5 10 6 0 17 -5 25 -10z m160 0 c8 -5 11 -10 5
-10 -5 0 -17 5 -25 10 -8 5 -10 10 -5 10 6 0 17 -5 25 -10z m-1600 -10 c0 -5
-4 -10 -10 -10 -5 0 -10 5 -10 10 0 6 5 10 10 10 6 0 10 -4 10 -10z m80 0 c0
-5 -4 -10 -10 -10 -5 0 -10 5 -10 10 0 6 5 10 10 10 6 0 10 -4 10 -10z m1600
0 c0 -5 -4 -10 -10 -10 -5 0 -10 5 -10 10 0 6 5 10 10 10 6 0 10 -4 10 -10z
m80 0 c0 -5 -4 -10 -10 -10 -5 0 -10 5 -10 10 0 6 5 10 10 10 6 0 10 -4 10
-10z m783 -7 c-18 -7 -16 -21 5 -26 15 -4 15 -5 0 -6 -9 0 -20 4 -23 9 -8 13
3 30 18 29 9 0 9 -2 0 -6z m320 0 c-18 -7 -16 -21 5 -26 15 -4 15 -5 0 -6 -9
0 -20 4 -23 9 -8 13 3 30 18 29 9 0 9 -2 0 -6z m480 0 c-18 -7 -16 -21 5 -26
15 -4 15 -5 0 -6 -9 0 -20 4 -23 9 -8 13 3 30 18 29 9 0 9 -2 0 -6z m2240 0
c-18 -7 -16 -21 5 -26 15 -4 15 -5 0 -6 -9 0 -20 4 -23 9 -8 13 3 30 18 29 9
0 9 -2 0 -6z m-5343 -23 c0 -5 -4 -10 -10 -10 -5 0 -10 5 -10 10 0 6 5 10 10
10 6 0 10 -4 10 -10z m480 0 c0 -5 -4 -10 -10 -10 -5 0 -10 5 -10 10 0 6 5 10
10 10 6 0 10 -4 10 -10z m80 0 c0 -5 -4 -10 -10 -10 -5 0 -10 5 -10 10 0 6 5
10 10 10 6 0 10 -4 10 -10z m80 0 c0 -5 -4 -10 -10 -10 -5 0 -10 5 -10 10 0 6
5 10 10 10 6 0 10 -4 10 -10z m80 0 c0 -5 -4 -10 -10 -10 -5 0 -10 5 -10 10 0
6 5 10 10 10 6 0 10 -4 10 -10z m80 0 c0 -5 -4 -10 -10 -10 -5 0 -10 5 -10 10
0 6 5 10 10 10 6 0 10 -4 10 -10z m480 0 c0 -5 -4 -10 -10 -10 -5 0 -10 5 -10
10 0 6 5 10 10 10 6 0 10 -4 10 -10z m3760 0 c0 -5 -4 -10 -10 -10 -5 0 -10 5
-10 10 0 6 5 10 10 10 6 0 10 -4 10 -10z m480 0 c0 -5 -4 -10 -10 -10 -5 0
-10 5 -10 10 0 6 5 10 10 10 6 0 10 -4 10 -10z m240 0 c0 -5 -4 -10 -10 -10
-5 0 -10 5 -10 10 0 6 5 10 10 10 6 0 10 -4 10 -10z m-3272 -27 c-10 -2 -26
-2 -35 0 -10 3 -2 5 17 5 19 0 27 -2 18 -5z m400 0 c-10 -2 -26 -2 -35 0 -10
3 -2 5 17 5 19 0 27 -2 18 -5z m480 0 c-10 -2 -26 -2 -35 0 -10 3 -2 5 17 5
19 0 27 -2 18 -5z m880 0 c-10 -2 -26 -2 -35 0 -10 3 -2 5 17 5 19 0 27 -2 18
-5z m-2331 -190 c-2 -21 -4 -4 -4 37 0 41 2 58 4 38 2 -21 2 -55 0 -75z m3360
70 c-3 -10 -5 -4 -5 12 0 17 2 24 5 18 2 -7 2 -21 0 -30z m78 2 c16 0 20 -7
20 -30 0 -26 -4 -30 -27 -31 -27 -1 -28 1 -27 50 1 31 4 43 7 31 4 -11 16 -20
27 -20z m82 -2 c-3 -10 -5 -4 -5 12 0 17 2 24 5 18 2 -7 2 -21 0 -30z m-5863
-15 c-9 -59 -14 -60 -14 -5 0 26 5 47 10 47 6 0 8 -16 4 -42z m45 -5 c-1 -47
-1 -47 -9 -14 -7 31 -4 61 6 61 2 0 4 -21 3 -47z m35 5 c-9 -59 -14 -60 -14
-5 0 26 5 47 10 47 6 0 8 -16 4 -42z m45 -5 c-1 -47 -1 -47 -9 -14 -7 31 -4
61 6 61 2 0 4 -21 3 -47z m35 5 c-9 -59 -14 -60 -14 -5 0 26 5 47 10 47 6 0 8
-16 4 -42z m45 -5 c-1 -47 -1 -47 -9 -14 -7 31 -4 61 6 61 2 0 4 -21 3 -47z
m35 5 c-9 -59 -14 -60 -14 -5 0 26 5 47 10 47 6 0 8 -16 4 -42z m45 -5 c-1
-47 -1 -47 -9 -14 -7 31 -4 61 6 61 2 0 4 -21 3 -47z m35 5 c-9 -59 -14 -60
-14 -5 0 26 5 47 10 47 6 0 8 -16 4 -42z m45 -5 c-1 -47 -1 -47 -9 -14 -7 31
-4 61 6 61 2 0 4 -21 3 -47z m1395 5 c-9 -59 -14 -60 -14 -5 0 26 5 47 10 47
6 0 8 -16 4 -42z m45 -5 c-1 -47 -1 -47 -9 -14 -7 31 -4 61 6 61 2 0 4 -21 3
-47z m35 5 c-9 -59 -14 -60 -14 -5 0 26 5 47 10 47 6 0 8 -16 4 -42z m45 -5
c-1 -47 -1 -47 -9 -14 -7 31 -4 61 6 61 2 0 4 -21 3 -47z m35 5 c-9 -59 -14
-60 -14 -5 0 26 5 47 10 47 6 0 8 -16 4 -42z m45 -5 c-1 -47 -1 -47 -9 -14 -7
31 -4 61 6 61 2 0 4 -21 3 -47z m35 5 c-9 -59 -14 -60 -14 -5 0 26 5 47 10 47
6 0 8 -16 4 -42z m45 -5 c-1 -47 -1 -47 -9 -14 -7 31 -4 61 6 61 2 0 4 -21 3
-47z m35 5 c-9 -59 -14 -60 -14 -5 0 26 5 47 10 47 6 0 8 -16 4 -42z m45 -5
c-1 -47 -1 -47 -9 -14 -7 31 -4 61 6 61 2 0 4 -21 3 -47z m3981 8 c0 -22 5
-42 13 -44 6 -3 -1 -6 -18 -6 -21 0 -26 2 -16 8 9 6 12 21 9 45 -2 20 0 36 4
36 4 0 8 -18 8 -39z m-3679 2 c-12 -20 -14 -14 -5 12 4 9 9 14 11 11 3 -2 0
-13 -6 -23z m-2001 7 c0 -5 -4 -10 -10 -10 -5 0 -10 5 -10 10 0 6 5 10 10 10
6 0 10 -4 10 -10z m80 0 c0 -5 -4 -10 -10 -10 -5 0 -10 5 -10 10 0 6 5 10 10
10 6 0 10 -4 10 -10z m320 0 c0 -5 -4 -10 -10 -10 -5 0 -10 5 -10 10 0 6 5 10
10 10 6 0 10 -4 10 -10z m80 0 c0 -5 -4 -10 -10 -10 -5 0 -10 5 -10 10 0 6 5
10 10 10 6 0 10 -4 10 -10z m80 0 c0 -5 -4 -10 -10 -10 -5 0 -10 5 -10 10 0 6
5 10 10 10 6 0 10 -4 10 -10z m90 -20 c-4 -3 -10 -12 -13 -20 -4 -12 -6 -11
-6 3 -1 9 -9 18 -18 18 -17 1 -17 2 0 6 9 2 17 9 17 14 0 5 6 4 14 -3 8 -7 10
-15 6 -18z m70 20 c0 -5 -4 -10 -10 -10 -5 0 -10 5 -10 10 0 6 5 10 10 10 6 0
10 -4 10 -10z m80 0 c0 -5 -4 -10 -10 -10 -5 0 -10 5 -10 10 0 6 5 10 10 10 6
0 10 -4 10 -10z m80 0 c0 -5 -4 -10 -10 -10 -5 0 -10 5 -10 10 0 6 5 10 10 10
6 0 10 -4 10 -10z m320 0 c0 -5 -4 -10 -10 -10 -5 0 -10 5 -10 10 0 6 5 10 10
10 6 0 10 -4 10 -10z m80 0 c0 -5 -4 -10 -10 -10 -5 0 -10 5 -10 10 0 6 5 10
10 10 6 0 10 -4 10 -10z m4240 0 c0 -5 -4 -10 -10 -10 -5 0 -10 5 -10 10 0 6
5 10 10 10 6 0 10 -4 10 -10z m-5920 -20 c0 -5 -4 -10 -10 -10 -5 0 -10 5 -10
10 0 6 5 10 10 10 6 0 10 -4 10 -10z m80 0 c0 -5 -4 -10 -10 -10 -5 0 -10 5
-10 10 0 6 5 10 10 10 6 0 10 -4 10 -10z m80 0 c0 -5 -4 -10 -10 -10 -5 0 -10
5 -10 10 0 6 5 10 10 10 6 0 10 -4 10 -10z m80 0 c0 -5 -4 -10 -10 -10 -5 0
-10 5 -10 10 0 6 5 10 10 10 6 0 10 -4 10 -10z m80 0 c0 -5 -4 -10 -10 -10 -5
0 -10 5 -10 10 0 6 5 10 10 10 6 0 10 -4 10 -10z m1440 0 c0 -5 -4 -10 -10
-10 -5 0 -10 5 -10 10 0 6 5 10 10 10 6 0 10 -4 10 -10z m80 0 c0 -5 -4 -10
-10 -10 -5 0 -10 5 -10 10 0 6 5 10 10 10 6 0 10 -4 10 -10z m80 0 c0 -5 -4
-10 -10 -10 -5 0 -10 5 -10 10 0 6 5 10 10 10 6 0 10 -4 10 -10z m80 0 c0 -5
-4 -10 -10 -10 -5 0 -10 5 -10 10 0 6 5 10 10 10 6 0 10 -4 10 -10z m80 0 c0
-5 -4 -10 -10 -10 -5 0 -10 5 -10 10 0 6 5 10 10 10 6 0 10 -4 10 -10z m301
-37 c-12 -20 -14 -14 -5 12 4 9 9 14 11 11 3 -2 0 -13 -6 -23z m-1981 7 c0 -5
-4 -10 -10 -10 -5 0 -10 5 -10 10 0 6 5 10 10 10 6 0 10 -4 10 -10z m80 0 c0
-5 -4 -10 -10 -10 -5 0 -10 5 -10 10 0 6 5 10 10 10 6 0 10 -4 10 -10z m80 0
c0 -5 -4 -10 -10 -10 -5 0 -10 5 -10 10 0 6 5 10 10 10 6 0 10 -4 10 -10z
m160 0 c0 -5 -4 -10 -10 -10 -5 0 -10 5 -10 10 0 6 5 10 10 10 6 0 10 -4 10
-10z m80 0 c0 -5 -4 -10 -10 -10 -5 0 -10 5 -10 10 0 6 5 10 10 10 6 0 10 -4
10 -10z m80 0 c0 -5 -4 -10 -10 -10 -5 0 -10 5 -10 10 0 6 5 10 10 10 6 0 10
-4 10 -10z m80 0 c0 -5 -4 -10 -10 -10 -5 0 -10 5 -10 10 0 6 5 10 10 10 6 0
10 -4 10 -10z m160 0 c0 -5 -4 -10 -10 -10 -5 0 -10 5 -10 10 0 6 5 10 10 10
6 0 10 -4 10 -10z m80 0 c0 -5 -4 -10 -10 -10 -5 0 -10 5 -10 10 0 6 5 10 10
10 6 0 10 -4 10 -10z m80 0 c0 -5 -4 -10 -10 -10 -5 0 -10 5 -10 10 0 6 5 10
10 10 6 0 10 -4 10 -10z m80 0 c0 -5 -4 -10 -10 -10 -5 0 -10 5 -10 10 0 6 5
10 10 10 6 0 10 -4 10 -10z m160 0 c0 -5 -4 -10 -10 -10 -5 0 -10 5 -10 10 0
6 5 10 10 10 6 0 10 -4 10 -10z m80 0 c0 -5 -4 -10 -10 -10 -5 0 -10 5 -10 10
0 6 5 10 10 10 6 0 10 -4 10 -10z m80 0 c0 -5 -4 -10 -10 -10 -5 0 -10 5 -10
10 0 6 5 10 10 10 6 0 10 -4 10 -10z m4240 0 c0 -5 -4 -10 -10 -10 -5 0 -10 5
-10 10 0 6 5 10 10 10 6 0 10 -4 10 -10z m240 0 c0 -5 -4 -10 -10 -10 -5 0
-10 5 -10 10 0 6 5 10 10 10 6 0 10 -4 10 -10z m-483 -147 c-3 -10 -5 -4 -5
12 0 17 2 24 5 18 2 -7 2 -21 0 -30z m160 0 c-3 -10 -5 -4 -5 12 0 17 2 24 5
18 2 -7 2 -21 0 -30z m-5543 -15 c-9 -59 -14 -60 -14 -5 0 26 5 47 10 47 6 0
8 -16 4 -42z m45 -5 c-1 -47 -1 -47 -9 -14 -7 31 -4 61 6 61 2 0 4 -21 3 -47z
m35 5 c-9 -59 -14 -60 -14 -5 0 26 5 47 10 47 6 0 8 -16 4 -42z m45 -5 c-1
-47 -1 -47 -9 -14 -7 31 -4 61 6 61 2 0 4 -21 3 -47z m1235 5 c-9 -59 -14 -60
-14 -5 0 26 5 47 10 47 6 0 8 -16 4 -42z m45 -5 c-1 -47 -1 -47 -9 -14 -7 31
-4 61 6 61 2 0 4 -21 3 -47z m35 5 c-9 -59 -14 -60 -14 -5 0 26 5 47 10 47 6
0 8 -16 4 -42z m45 -5 c-1 -47 -1 -47 -9 -14 -7 31 -4 61 6 61 2 0 4 -21 3
-47z m4301 8 c0 -22 5 -42 13 -44 6 -3 -1 -6 -18 -6 -21 0 -26 2 -16 8 9 6 12
21 9 45 -2 20 0 36 4 36 4 0 8 -18 8 -39z m-5600 9 c0 -5 -4 -10 -10 -10 -5 0
-10 5 -10 10 0 6 5 10 10 10 6 0 10 -4 10 -10z m80 0 c0 -5 -4 -10 -10 -10 -5
0 -10 5 -10 10 0 6 5 10 10 10 6 0 10 -4 10 -10z m80 0 c0 -5 -4 -10 -10 -10
-5 0 -10 5 -10 10 0 6 5 10 10 10 6 0 10 -4 10 -10z m80 0 c0 -5 -4 -10 -10
-10 -5 0 -10 5 -10 10 0 6 5 10 10 10 6 0 10 -4 10 -10z m80 0 c0 -5 -4 -10
-10 -10 -5 0 -10 5 -10 10 0 6 5 10 10 10 6 0 10 -4 10 -10z m480 0 c0 -5 -4
-10 -10 -10 -5 0 -10 5 -10 10 0 6 5 10 10 10 6 0 10 -4 10 -10z m80 0 c0 -5
-4 -10 -10 -10 -5 0 -10 5 -10 10 0 6 5 10 10 10 6 0 10 -4 10 -10z m80 0 c0
-5 -4 -10 -10 -10 -5 0 -10 5 -10 10 0 6 5 10 10 10 6 0 10 -4 10 -10z m80 0
c0 -5 -4 -10 -10 -10 -5 0 -10 5 -10 10 0 6 5 10 10 10 6 0 10 -4 10 -10z m80
0 c0 -5 -4 -10 -10 -10 -5 0 -10 5 -10 10 0 6 5 10 10 10 6 0 10 -4 10 -10z
m4132 -30 c-6 -41 -12 -38 -12 6 0 19 4 33 8 30 5 -3 7 -19 4 -36z m44 -1 c2
-31 1 -31 -3 -4 -3 16 -10 34 -16 38 -8 6 -7 7 3 4 9 -2 16 -17 16 -38z m144
31 c0 -5 -4 -10 -10 -10 -5 0 -10 5 -10 10 0 6 5 10 10 10 6 0 10 -4 10 -10z
m-5600 -20 c0 -5 -4 -10 -10 -10 -5 0 -10 5 -10 10 0 6 5 10 10 10 6 0 10 -4
10 -10z m80 0 c0 -5 -4 -10 -10 -10 -5 0 -10 5 -10 10 0 6 5 10 10 10 6 0 10
-4 10 -10z m1280 0 c0 -5 -4 -10 -10 -10 -5 0 -10 5 -10 10 0 6 5 10 10 10 6
0 10 -4 10 -10z m80 0 c0 -5 -4 -10 -10 -10 -5 0 -10 5 -10 10 0 6 5 10 10 10
6 0 10 -4 10 -10z m-1520 -30 c0 -5 -4 -10 -10 -10 -5 0 -10 5 -10 10 0 6 5
10 10 10 6 0 10 -4 10 -10z m240 0 c0 -5 -4 -10 -10 -10 -5 0 -10 5 -10 10 0
6 5 10 10 10 6 0 10 -4 10 -10z m80 0 c0 -5 -4 -10 -10 -10 -5 0 -10 5 -10 10
0 6 5 10 10 10 6 0 10 -4 10 -10z m80 0 c0 -5 -4 -10 -10 -10 -5 0 -10 5 -10
10 0 6 5 10 10 10 6 0 10 -4 10 -10z m80 0 c0 -5 -4 -10 -10 -10 -5 0 -10 5
-10 10 0 6 5 10 10 10 6 0 10 -4 10 -10z m80 0 c0 -5 -4 -10 -10 -10 -5 0 -10
5 -10 10 0 6 5 10 10 10 6 0 10 -4 10 -10z m160 0 c0 -5 -4 -10 -10 -10 -5 0
-10 5 -10 10 0 6 5 10 10 10 6 0 10 -4 10 -10z m160 0 c0 -5 -4 -10 -10 -10
-5 0 -10 5 -10 10 0 6 5 10 10 10 6 0 10 -4 10 -10z m160 0 c0 -5 -4 -10 -10
-10 -5 0 -10 5 -10 10 0 6 5 10 10 10 6 0 10 -4 10 -10z m80 0 c0 -5 -4 -10
-10 -10 -5 0 -10 5 -10 10 0 6 5 10 10 10 6 0 10 -4 10 -10z m80 0 c0 -5 -4
-10 -10 -10 -5 0 -10 5 -10 10 0 6 5 10 10 10 6 0 10 -4 10 -10z m80 0 c0 -5
-4 -10 -10 -10 -5 0 -10 5 -10 10 0 6 5 10 10 10 6 0 10 -4 10 -10z m80 0 c0
-5 -4 -10 -10 -10 -5 0 -10 5 -10 10 0 6 5 10 10 10 6 0 10 -4 10 -10z m240 0
c0 -5 -4 -10 -10 -10 -5 0 -10 5 -10 10 0 6 5 10 10 10 6 0 10 -4 10 -10z
m320 0 c0 -5 -4 -10 -10 -10 -5 0 -10 5 -10 10 0 6 5 10 10 10 6 0 10 -4 10
-10z m80 0 c0 -5 -4 -10 -10 -10 -5 0 -10 5 -10 10 0 6 5 10 10 10 6 0 10 -4
10 -10z m3680 0 c0 -5 -4 -10 -10 -10 -5 0 -10 5 -10 10 0 6 5 10 10 10 6 0
10 -4 10 -10z m240 0 c0 -5 -4 -10 -10 -10 -5 0 -10 5 -10 10 0 6 5 10 10 10
6 0 10 -4 10 -10z m-5112 -27 c-10 -2 -26 -2 -35 0 -10 3 -2 5 17 5 19 0 27
-2 18 -5z m4629 -120 c-3 -10 -5 -4 -5 12 0 17 2 24 5 18 2 -7 2 -21 0 -30z
m240 0 c-3 -10 -5 -4 -5 12 0 17 2 24 5 18 2 -7 2 -21 0 -30z m246 30 c-8 -3
-13 -24 -13 -53 0 -29 5 -50 13 -53 7 -3 5 -6 -5 -6 -15 -1 -18 8 -18 59 0 51
3 60 18 59 10 0 12 -3 5 -6z m157 -53 c0 -51 -3 -60 -17 -59 -11 0 -13 3 -5 6
7 3 12 24 12 53 0 29 -5 50 -12 53 -8 3 -6 6 5 6 14 1 17 -8 17 -59z m80 24
c8 -38 -2 -76 -20 -82 -12 -3 -13 -2 -1 6 17 12 17 92 -1 104 -10 8 -10 9 2 6
8 -3 17 -18 20 -34z m80 0 c8 -38 -2 -76 -20 -82 -12 -3 -13 -2 -1 6 17 12 17
92 -1 104 -10 8 -10 9 2 6 8 -3 17 -18 20 -34z m-6026 -16 c-9 -59 -14 -60
-14 -5 0 26 5 47 10 47 6 0 8 -16 4 -42z m45 -5 c-1 -47 -1 -47 -9 -14 -7 31
-4 61 6 61 2 0 4 -21 3 -47z m35 5 c-9 -59 -14 -60 -14 -5 0 26 5 47 10 47 6
0 8 -16 4 -42z m45 -5 c-1 -47 -1 -47 -9 -14 -7 31 -4 61 6 61 2 0 4 -21 3
-47z m35 5 c-9 -59 -14 -60 -14 -5 0 26 5 47 10 47 6 0 8 -16 4 -42z m45 -5
c-1 -47 -1 -47 -9 -14 -7 31 -4 61 6 61 2 0 4 -21 3 -47z m35 5 c-9 -59 -14
-60 -14 -5 0 26 5 47 10 47 6 0 8 -16 4 -42z m45 -5 c-1 -47 -1 -47 -9 -14 -7
31 -4 61 6 61 2 0 4 -21 3 -47z m595 5 c-9 -59 -14 -60 -14 -5 0 26 5 47 10
47 6 0 8 -16 4 -42z m45 -5 c-1 -47 -1 -47 -9 -14 -7 31 -4 61 6 61 2 0 4 -21
3 -47z m35 5 c-9 -59 -14 -60 -14 -5 0 26 5 47 10 47 6 0 8 -16 4 -42z m45 -5
c-1 -47 -1 -47 -9 -14 -7 31 -4 61 6 61 2 0 4 -21 3 -47z m35 5 c-9 -59 -14
-60 -14 -5 0 26 5 47 10 47 6 0 8 -16 4 -42z m45 -5 c-1 -47 -1 -47 -9 -14 -7
31 -4 61 6 61 2 0 4 -21 3 -47z m35 5 c-9 -59 -14 -60 -14 -5 0 26 5 47 10 47
6 0 8 -16 4 -42z m45 -5 c-1 -47 -1 -47 -9 -14 -7 31 -4 61 6 61 2 0 4 -21 3
-47z m4639 4 c2 -27 -1 -39 -13 -43 -35 -14 -61 46 -33 74 23 23 43 9 46 -31z
m-5458 13 c0 -5 -4 -10 -10 -10 -5 0 -10 5 -10 10 0 6 5 10 10 10 6 0 10 -4
10 -10z m80 0 c0 -5 -4 -10 -10 -10 -5 0 -10 5 -10 10 0 6 5 10 10 10 6 0 10
-4 10 -10z m80 0 c0 -5 -4 -10 -10 -10 -5 0 -10 5 -10 10 0 6 5 10 10 10 6 0
10 -4 10 -10z m80 0 c0 -5 -4 -10 -10 -10 -5 0 -10 5 -10 10 0 6 5 10 10 10 6
0 10 -4 10 -10z m80 0 c0 -5 -4 -10 -10 -10 -5 0 -10 5 -10 10 0 6 5 10 10 10
6 0 10 -4 10 -10z m80 0 c0 -5 -4 -10 -10 -10 -5 0 -10 5 -10 10 0 6 5 10 10
10 6 0 10 -4 10 -10z m80 0 c0 -5 -4 -10 -10 -10 -5 0 -10 5 -10 10 0 6 5 10
10 10 6 0 10 -4 10 -10z m4462 -30 c-6 -41 -12 -38 -12 6 0 19 4 33 8 30 5 -3
7 -19 4 -36z m104 15 c7 17 13 25 14 18 0 -17 -22 -63 -30 -63 -4 0 -10 8 -13
18 -2 9 -8 26 -12 37 -3 11 2 7 11 -10 l17 -30 13 30z m154 15 c0 -5 -4 -10
-10 -10 -5 0 -10 5 -10 10 0 6 5 10 10 10 6 0 10 -4 10 -10z m-5520 -20 c0 -5
-4 -10 -10 -10 -5 0 -10 5 -10 10 0 6 5 10 10 10 6 0 10 -4 10 -10z m80 0 c0
-5 -4 -10 -10 -10 -5 0 -10 5 -10 10 0 6 5 10 10 10 6 0 10 -4 10 -10z m80 0
c0 -5 -4 -10 -10 -10 -5 0 -10 5 -10 10 0 6 5 10 10 10 6 0 10 -4 10 -10z m80
0 c0 -5 -4 -10 -10 -10 -5 0 -10 5 -10 10 0 6 5 10 10 10 6 0 10 -4 10 -10z
m640 0 c0 -5 -4 -10 -10 -10 -5 0 -10 5 -10 10 0 6 5 10 10 10 6 0 10 -4 10
-10z m80 0 c0 -5 -4 -10 -10 -10 -5 0 -10 5 -10 10 0 6 5 10 10 10 6 0 10 -4
10 -10z m80 0 c0 -5 -4 -10 -10 -10 -5 0 -10 5 -10 10 0 6 5 10 10 10 6 0 10
-4 10 -10z m80 0 c0 -5 -4 -10 -10 -10 -5 0 -10 5 -10 10 0 6 5 10 10 10 6 0
10 -4 10 -10z m-800 -30 c0 -5 -4 -10 -10 -10 -5 0 -10 5 -10 10 0 6 5 10 10
10 6 0 10 -4 10 -10z m80 0 c0 -5 -4 -10 -10 -10 -5 0 -10 5 -10 10 0 6 5 10
10 10 6 0 10 -4 10 -10z m80 0 c0 -5 -4 -10 -10 -10 -5 0 -10 5 -10 10 0 6 5
10 10 10 6 0 10 -4 10 -10z m80 0 c0 -5 -4 -10 -10 -10 -5 0 -10 5 -10 10 0 6
5 10 10 10 6 0 10 -4 10 -10z m80 0 c0 -5 -4 -10 -10 -10 -5 0 -10 5 -10 10 0
6 5 10 10 10 6 0 10 -4 10 -10z m80 0 c0 -5 -4 -10 -10 -10 -5 0 -10 5 -10 10
0 6 5 10 10 10 6 0 10 -4 10 -10z m80 0 c0 -5 -4 -10 -10 -10 -5 0 -10 5 -10
10 0 6 5 10 10 10 6 0 10 -4 10 -10z m4720 0 c0 -5 -4 -10 -10 -10 -5 0 -10 5
-10 10 0 6 5 10 10 10 6 0 10 -4 10 -10z m-6026 -162 c-9 -59 -14 -60 -14 -5
0 26 5 47 10 47 6 0 8 -16 4 -42z m45 -5 c-1 -47 -1 -47 -9 -14 -7 31 -4 61 6
61 2 0 4 -21 3 -47z m35 5 c-9 -59 -14 -60 -14 -5 0 26 5 47 10 47 6 0 8 -16
4 -42z m45 -5 c-1 -47 -1 -47 -9 -14 -7 31 -4 61 6 61 2 0 4 -21 3 -47z m675
5 c-9 -59 -14 -60 -14 -5 0 26 5 47 10 47 6 0 8 -16 4 -42z m45 -5 c-1 -47 -1
-47 -9 -14 -7 31 -4 61 6 61 2 0 4 -21 3 -47z m35 5 c-9 -59 -14 -60 -14 -5 0
26 5 47 10 47 6 0 8 -16 4 -42z m45 -5 c-1 -47 -1 -47 -9 -14 -7 31 -4 61 6
61 2 0 4 -21 3 -47z m35 5 c-9 -59 -14 -60 -14 -5 0 26 5 47 10 47 6 0 8 -16
4 -42z m45 -5 c-1 -47 -1 -47 -9 -14 -7 31 -4 61 6 61 2 0 4 -21 3 -47z m35 5
c-9 -59 -14 -60 -14 -5 0 26 5 47 10 47 6 0 8 -16 4 -42z m45 -5 c-1 -47 -1
-47 -9 -14 -7 31 -4 61 6 61 2 0 4 -21 3 -47z m35 5 c-9 -59 -14 -60 -14 -5 0
26 5 47 10 47 6 0 8 -16 4 -42z m45 -5 c-1 -47 -1 -47 -9 -14 -7 31 -4 61 6
61 2 0 4 -21 3 -47z m35 5 c-9 -59 -14 -60 -14 -5 0 26 5 47 10 47 6 0 8 -16
4 -42z m45 -5 c-1 -47 -1 -47 -9 -14 -7 31 -4 61 6 61 2 0 4 -21 3 -47z m35 5
c-9 -59 -14 -60 -14 -5 0 26 5 47 10 47 6 0 8 -16 4 -42z m45 -5 c-1 -47 -1
-47 -9 -14 -7 31 -4 61 6 61 2 0 4 -21 3 -47z m-1371 0 c-10 -2 -26 -2 -35 0
-10 3 -2 5 17 5 19 0 27 -2 18 -5z m72 -3 c0 -5 -4 -10 -10 -10 -5 0 -10 5
-10 10 0 6 5 10 10 10 6 0 10 -4 10 -10z m80 0 c0 -5 -4 -10 -10 -10 -5 0 -10
5 -10 10 0 6 5 10 10 10 6 0 10 -4 10 -10z m720 0 c0 -5 -4 -10 -10 -10 -5 0
-10 5 -10 10 0 6 5 10 10 10 6 0 10 -4 10 -10z m80 0 c0 -5 -4 -10 -10 -10 -5
0 -10 5 -10 10 0 6 5 10 10 10 6 0 10 -4 10 -10z m80 0 c0 -5 -4 -10 -10 -10
-5 0 -10 5 -10 10 0 6 5 10 10 10 6 0 10 -4 10 -10z m80 0 c0 -5 -4 -10 -10
-10 -5 0 -10 5 -10 10 0 6 5 10 10 10 6 0 10 -4 10 -10z m80 0 c0 -5 -4 -10
-10 -10 -5 0 -10 5 -10 10 0 6 5 10 10 10 6 0 10 -4 10 -10z m80 0 c0 -5 -4
-10 -10 -10 -5 0 -10 5 -10 10 0 6 5 10 10 10 6 0 10 -4 10 -10z m80 0 c0 -5
-4 -10 -10 -10 -5 0 -10 5 -10 10 0 6 5 10 10 10 6 0 10 -4 10 -10z m-1360
-154 c0 -3 -4 -8 -10 -11 -5 -3 -10 -1 -10 4 0 6 5 11 10 11 6 0 10 -2 10 -4z
m214 -38 c-9 -59 -14 -60 -14 -5 0 26 5 47 10 47 6 0 8 -16 4 -42z m45 -5 c-1
-47 -1 -47 -9 -14 -7 31 -4 61 6 61 2 0 4 -21 3 -47z m515 5 c-9 -59 -14 -60
-14 -5 0 26 5 47 10 47 6 0 8 -16 4 -42z m45 -5 c-1 -47 -1 -47 -9 -14 -7 31
-4 61 6 61 2 0 4 -21 3 -47z m35 5 c-9 -59 -14 -60 -14 -5 0 26 5 47 10 47 6
0 8 -16 4 -42z m45 -5 c-1 -47 -1 -47 -9 -14 -7 31 -4 61 6 61 2 0 4 -21 3
-47z m35 5 c-9 -59 -14 -60 -14 -5 0 26 5 47 10 47 6 0 8 -16 4 -42z m45 -5
c-1 -47 -1 -47 -9 -14 -7 31 -4 61 6 61 2 0 4 -21 3 -47z m35 5 c-9 -59 -14
-60 -14 -5 0 26 5 47 10 47 6 0 8 -16 4 -42z m45 -5 c-1 -47 -1 -47 -9 -14 -7
31 -4 61 6 61 2 0 4 -21 3 -47z m35 5 c-9 -59 -14 -60 -14 -5 0 26 5 47 10 47
6 0 8 -16 4 -42z m45 -5 c-1 -47 -1 -47 -9 -14 -7 31 -4 61 6 61 2 0 4 -21 3
-47z m35 5 c-9 -59 -14 -60 -14 -5 0 26 5 47 10 47 6 0 8 -16 4 -42z m45 -5
c-1 -47 -1 -47 -9 -14 -7 31 -4 61 6 61 2 0 4 -21 3 -47z m35 5 c-9 -59 -14
-60 -14 -5 0 26 5 47 10 47 6 0 8 -16 4 -42z m45 -5 c-1 -47 -1 -47 -9 -14 -7
31 -4 61 6 61 2 0 4 -21 3 -47z m35 5 c-9 -59 -14 -60 -14 -5 0 26 5 47 10 47
6 0 8 -16 4 -42z m45 -5 c-1 -47 -1 -47 -9 -14 -7 31 -4 61 6 61 2 0 4 -21 3
-47z m35 5 c-9 -59 -14 -60 -14 -5 0 26 5 47 10 47 6 0 8 -16 4 -42z m45 -5
c-1 -47 -1 -47 -9 -14 -7 31 -4 61 6 61 2 0 4 -21 3 -47z m-1445 11 c3 -8 2
-12 -4 -9 -6 3 -10 10 -10 16 0 14 7 11 14 -7z m316 -14 c-4 -3 -10 -12 -13
-20 -4 -12 -6 -11 -6 3 -1 9 -9 18 -18 18 -17 1 -17 2 0 6 9 2 17 9 17 14 0 5
6 4 14 -3 8 -7 10 -15 6 -18z m-90 0 c0 -5 -4 -10 -10 -10 -5 0 -10 5 -10 10
0 6 5 10 10 10 6 0 10 -4 10 -10z m560 0 c0 -5 -4 -10 -10 -10 -5 0 -10 5 -10
10 0 6 5 10 10 10 6 0 10 -4 10 -10z m80 0 c0 -5 -4 -10 -10 -10 -5 0 -10 5
-10 10 0 6 5 10 10 10 6 0 10 -4 10 -10z m80 0 c0 -5 -4 -10 -10 -10 -5 0 -10
5 -10 10 0 6 5 10 10 10 6 0 10 -4 10 -10z m80 0 c0 -5 -4 -10 -10 -10 -5 0
-10 5 -10 10 0 6 5 10 10 10 6 0 10 -4 10 -10z m80 0 c0 -5 -4 -10 -10 -10 -5
0 -10 5 -10 10 0 6 5 10 10 10 6 0 10 -4 10 -10z m80 0 c0 -5 -4 -10 -10 -10
-5 0 -10 5 -10 10 0 6 5 10 10 10 6 0 10 -4 10 -10z m80 0 c0 -5 -4 -10 -10
-10 -5 0 -10 5 -10 10 0 6 5 10 10 10 6 0 10 -4 10 -10z m80 0 c0 -5 -4 -10
-10 -10 -5 0 -10 5 -10 10 0 6 5 10 10 10 6 0 10 -4 10 -10z m80 0 c0 -5 -4
-10 -10 -10 -5 0 -10 5 -10 10 0 6 5 10 10 10 6 0 10 -4 10 -10z m-1146 -192
c-9 -59 -14 -60 -14 -5 0 26 5 47 10 47 6 0 8 -16 4 -42z m45 -5 c-1 -47 -1
-47 -9 -14 -7 31 -4 61 6 61 2 0 4 -21 3 -47z m35 5 c-9 -59 -14 -60 -14 -5 0
26 5 47 10 47 6 0 8 -16 4 -42z m45 -5 c-1 -47 -1 -47 -9 -14 -7 31 -4 61 6
61 2 0 4 -21 3 -47z m35 5 c-9 -59 -14 -60 -14 -5 0 26 5 47 10 47 6 0 8 -16
4 -42z m45 -5 c-1 -47 -1 -47 -9 -14 -7 31 -4 61 6 61 2 0 4 -21 3 -47z m35 5
c-9 -59 -14 -60 -14 -5 0 26 5 47 10 47 6 0 8 -16 4 -42z m45 -5 c-1 -47 -1
-47 -9 -14 -7 31 -4 61 6 61 2 0 4 -21 3 -47z m35 5 c-9 -59 -14 -60 -14 -5 0
26 5 47 10 47 6 0 8 -16 4 -42z m45 -5 c-1 -47 -1 -47 -9 -14 -7 31 -4 61 6
61 2 0 4 -21 3 -47z m35 5 c-9 -59 -14 -60 -14 -5 0 26 5 47 10 47 6 0 8 -16
4 -42z m45 -5 c-1 -47 -1 -47 -9 -14 -7 31 -4 61 6 61 2 0 4 -21 3 -47z m35 5
c-9 -59 -14 -60 -14 -5 0 26 5 47 10 47 6 0 8 -16 4 -42z m45 -5 c-1 -47 -1
-47 -9 -14 -7 31 -4 61 6 61 2 0 4 -21 3 -47z m115 5 c-9 -59 -14 -60 -14 -5
0 26 5 47 10 47 6 0 8 -16 4 -42z m45 -5 c-1 -47 -1 -47 -9 -14 -7 31 -4 61 6
61 2 0 4 -21 3 -47z m35 5 c-9 -59 -14 -60 -14 -5 0 26 5 47 10 47 6 0 8 -16
4 -42z m45 -5 c-1 -47 -1 -47 -9 -14 -7 31 -4 61 6 61 2 0 4 -21 3 -47z m115
5 c-9 -59 -14 -60 -14 -5 0 26 5 47 10 47 6 0 8 -16 4 -42z m45 -5 c-1 -47 -1
-47 -9 -14 -7 31 -4 61 6 61 2 0 4 -21 3 -47z m35 5 c-9 -59 -14 -60 -14 -5 0
26 5 47 10 47 6 0 8 -16 4 -42z m45 -5 c-1 -47 -1 -47 -9 -14 -7 31 -4 61 6
61 2 0 4 -21 3 -47z m115 5 c-9 -59 -14 -60 -14 -5 0 26 5 47 10 47 6 0 8 -16
4 -42z m45 -5 c-1 -47 -1 -47 -9 -14 -7 31 -4 61 6 61 2 0 4 -21 3 -47z m35 5
c-9 -59 -14 -60 -14 -5 0 26 5 47 10 47 6 0 8 -16 4 -42z m45 -5 c-1 -47 -1
-47 -9 -14 -7 31 -4 61 6 61 2 0 4 -21 3 -47z m-1219 -3 c0 -5 -4 -10 -10 -10
-5 0 -10 5 -10 10 0 6 5 10 10 10 6 0 10 -4 10 -10z m80 0 c0 -5 -4 -10 -10
-10 -5 0 -10 5 -10 10 0 6 5 10 10 10 6 0 10 -4 10 -10z m80 0 c0 -5 -4 -10
-10 -10 -5 0 -10 5 -10 10 0 6 5 10 10 10 6 0 10 -4 10 -10z m80 0 c0 -5 -4
-10 -10 -10 -5 0 -10 5 -10 10 0 6 5 10 10 10 6 0 10 -4 10 -10z m80 0 c0 -5
-4 -10 -10 -10 -5 0 -10 5 -10 10 0 6 5 10 10 10 6 0 10 -4 10 -10z m80 0 c0
-5 -4 -10 -10 -10 -5 0 -10 5 -10 10 0 6 5 10 10 10 6 0 10 -4 10 -10z m80 0
c0 -5 -4 -10 -10 -10 -5 0 -10 5 -10 10 0 6 5 10 10 10 6 0 10 -4 10 -10z
m160 0 c0 -5 -4 -10 -10 -10 -5 0 -10 5 -10 10 0 6 5 10 10 10 6 0 10 -4 10
-10z m80 0 c0 -5 -4 -10 -10 -10 -5 0 -10 5 -10 10 0 6 5 10 10 10 6 0 10 -4
10 -10z m160 0 c0 -5 -4 -10 -10 -10 -5 0 -10 5 -10 10 0 6 5 10 10 10 6 0 10
-4 10 -10z m80 0 c0 -5 -4 -10 -10 -10 -5 0 -10 5 -10 10 0 6 5 10 10 10 6 0
10 -4 10 -10z m160 0 c0 -5 -4 -10 -10 -10 -5 0 -10 5 -10 10 0 6 5 10 10 10
6 0 10 -4 10 -10z m80 0 c0 -5 -4 -10 -10 -10 -5 0 -10 5 -10 10 0 6 5 10 10
10 6 0 10 -4 10 -10z m-826 -192 c-9 -59 -14 -60 -14 -5 0 26 5 47 10 47 6 0
8 -16 4 -42z m45 -5 c-1 -47 -1 -47 -9 -14 -7 31 -4 61 6 61 2 0 4 -21 3 -47z
m35 5 c-9 -59 -14 -60 -14 -5 0 26 5 47 10 47 6 0 8 -16 4 -42z m45 -5 c-1
-47 -1 -47 -9 -14 -7 31 -4 61 6 61 2 0 4 -21 3 -47z m115 5 c-9 -59 -14 -60
-14 -5 0 26 5 47 10 47 6 0 8 -16 4 -42z m45 -5 c-1 -47 -1 -47 -9 -14 -7 31
-4 61 6 61 2 0 4 -21 3 -47z m35 5 c-9 -59 -14 -60 -14 -5 0 26 5 47 10 47 6
0 8 -16 4 -42z m45 -5 c-1 -47 -1 -47 -9 -14 -7 31 -4 61 6 61 2 0 4 -21 3
-47z m115 5 c-9 -59 -14 -60 -14 -5 0 26 5 47 10 47 6 0 8 -16 4 -42z m45 -5
c-1 -47 -1 -47 -9 -14 -7 31 -4 61 6 61 2 0 4 -21 3 -47z m35 5 c-9 -59 -14
-60 -14 -5 0 26 5 47 10 47 6 0 8 -16 4 -42z m45 -5 c-1 -47 -1 -47 -9 -14 -7
31 -4 61 6 61 2 0 4 -21 3 -47z m115 5 c-9 -59 -14 -60 -14 -5 0 26 5 47 10
47 6 0 8 -16 4 -42z m45 -5 c-1 -47 -1 -47 -9 -14 -7 31 -4 61 6 61 2 0 4 -21
3 -47z m35 5 c-9 -59 -14 -60 -14 -5 0 26 5 47 10 47 6 0 8 -16 4 -42z m45 -5
c-1 -47 -1 -47 -9 -14 -7 31 -4 61 6 61 2 0 4 -21 3 -47z m-819 -3 c0 -5 -4
-10 -10 -10 -5 0 -10 5 -10 10 0 6 5 10 10 10 6 0 10 -4 10 -10z m80 0 c0 -5
-4 -10 -10 -10 -5 0 -10 5 -10 10 0 6 5 10 10 10 6 0 10 -4 10 -10z m160 0 c0
-5 -4 -10 -10 -10 -5 0 -10 5 -10 10 0 6 5 10 10 10 6 0 10 -4 10 -10z m80 0
c0 -5 -4 -10 -10 -10 -5 0 -10 5 -10 10 0 6 5 10 10 10 6 0 10 -4 10 -10z
m160 0 c0 -5 -4 -10 -10 -10 -5 0 -10 5 -10 10 0 6 5 10 10 10 6 0 10 -4 10
-10z m80 0 c0 -5 -4 -10 -10 -10 -5 0 -10 5 -10 10 0 6 5 10 10 10 6 0 10 -4
10 -10z m160 0 c0 -5 -4 -10 -10 -10 -5 0 -10 5 -10 10 0 6 5 10 10 10 6 0 10
-4 10 -10z m80 0 c0 -5 -4 -10 -10 -10 -5 0 -10 5 -10 10 0 6 5 10 10 10 6 0
10 -4 10 -10z m-826 -192 c-9 -59 -14 -60 -14 -5 0 26 5 47 10 47 6 0 8 -16 4
-42z m45 -5 c-1 -47 -1 -47 -9 -14 -7 31 -4 61 6 61 2 0 4 -21 3 -47z m35 5
c-9 -59 -14 -60 -14 -5 0 26 5 47 10 47 6 0 8 -16 4 -42z m45 -5 c-1 -47 -1
-47 -9 -14 -7 31 -4 61 6 61 2 0 4 -21 3 -47z m115 5 c-9 -59 -14 -60 -14 -5
0 26 5 47 10 47 6 0 8 -16 4 -42z m45 -5 c-1 -47 -1 -47 -9 -14 -7 31 -4 61 6
61 2 0 4 -21 3 -47z m35 5 c-9 -59 -14 -60 -14 -5 0 26 5 47 10 47 6 0 8 -16
4 -42z m45 -5 c-1 -47 -1 -47 -9 -14 -7 31 -4 61 6 61 2 0 4 -21 3 -47z m115
5 c-9 -59 -14 -60 -14 -5 0 26 5 47 10 47 6 0 8 -16 4 -42z m45 -5 c-1 -47 -1
-47 -9 -14 -7 31 -4 61 6 61 2 0 4 -21 3 -47z m35 5 c-9 -59 -14 -60 -14 -5 0
26 5 47 10 47 6 0 8 -16 4 -42z m45 -5 c-1 -47 -1 -47 -9 -14 -7 31 -4 61 6
61 2 0 4 -21 3 -47z m115 5 c-9 -59 -14 -60 -14 -5 0 26 5 47 10 47 6 0 8 -16
4 -42z m45 -5 c-1 -47 -1 -47 -9 -14 -7 31 -4 61 6 61 2 0 4 -21 3 -47z m35 5
c-9 -59 -14 -60 -14 -5 0 26 5 47 10 47 6 0 8 -16 4 -42z m45 -5 c-1 -47 -1
-47 -9 -14 -7 31 -4 61 6 61 2 0 4 -21 3 -47z m-819 -3 c0 -5 -4 -10 -10 -10
-5 0 -10 5 -10 10 0 6 5 10 10 10 6 0 10 -4 10 -10z m80 0 c0 -5 -4 -10 -10
-10 -5 0 -10 5 -10 10 0 6 5 10 10 10 6 0 10 -4 10 -10z m160 0 c0 -5 -4 -10
-10 -10 -5 0 -10 5 -10 10 0 6 5 10 10 10 6 0 10 -4 10 -10z m80 0 c0 -5 -4
-10 -10 -10 -5 0 -10 5 -10 10 0 6 5 10 10 10 6 0 10 -4 10 -10z m160 0 c0 -5
-4 -10 -10 -10 -5 0 -10 5 -10 10 0 6 5 10 10 10 6 0 10 -4 10 -10z m80 0 c0
-5 -4 -10 -10 -10 -5 0 -10 5 -10 10 0 6 5 10 10 10 6 0 10 -4 10 -10z m160 0
c0 -5 -4 -10 -10 -10 -5 0 -10 5 -10 10 0 6 5 10 10 10 6 0 10 -4 10 -10z m80
0 c0 -5 -4 -10 -10 -10 -5 0 -10 5 -10 10 0 6 5 10 10 10 6 0 10 -4 10 -10z
m-826 -192 c-9 -59 -14 -60 -14 -5 0 26 5 47 10 47 6 0 8 -16 4 -42z m45 -5
c-1 -47 -1 -47 -9 -14 -7 31 -4 61 6 61 2 0 4 -21 3 -47z m35 5 c-9 -59 -14
-60 -14 -5 0 26 5 47 10 47 6 0 8 -16 4 -42z m45 -5 c-1 -47 -1 -47 -9 -14 -7
31 -4 61 6 61 2 0 4 -21 3 -47z m115 5 c-9 -59 -14 -60 -14 -5 0 26 5 47 10
47 6 0 8 -16 4 -42z m45 -5 c-1 -47 -1 -47 -9 -14 -7 31 -4 61 6 61 2 0 4 -21
3 -47z m35 5 c-9 -59 -14 -60 -14 -5 0 26 5 47 10 47 6 0 8 -16 4 -42z m45 -5
c-1 -47 -1 -47 -9 -14 -7 31 -4 61 6 61 2 0 4 -21 3 -47z m115 5 c-9 -59 -14
-60 -14 -5 0 26 5 47 10 47 6 0 8 -16 4 -42z m45 -5 c-1 -47 -1 -47 -9 -14 -7
31 -4 61 6 61 2 0 4 -21 3 -47z m35 5 c-9 -59 -14 -60 -14 -5 0 26 5 47 10 47
6 0 8 -16 4 -42z m45 -5 c-1 -47 -1 -47 -9 -14 -7 31 -4 61 6 61 2 0 4 -21 3
-47z m115 5 c-9 -59 -14 -60 -14 -5 0 26 5 47 10 47 6 0 8 -16 4 -42z m45 -5
c-1 -47 -1 -47 -9 -14 -7 31 -4 61 6 61 2 0 4 -21 3 -47z m35 5 c-9 -59 -14
-60 -14 -5 0 26 5 47 10 47 6 0 8 -16 4 -42z m45 -5 c-1 -47 -1 -47 -9 -14 -7
31 -4 61 6 61 2 0 4 -21 3 -47z m-979 7 c8 -5 11 -10 5 -10 -5 0 -17 5 -25 10
-8 5 -10 10 -5 10 6 0 17 -5 25 -10z m80 0 c8 -5 11 -10 5 -10 -5 0 -17 5 -25
10 -8 5 -10 10 -5 10 6 0 17 -5 25 -10z m240 0 c8 -5 11 -10 5 -10 -5 0 -17 5
-25 10 -8 5 -10 10 -5 10 6 0 17 -5 25 -10z m240 0 c8 -5 11 -10 5 -10 -5 0
-17 5 -25 10 -8 5 -10 10 -5 10 6 0 17 -5 25 -10z m240 0 c8 -5 11 -10 5 -10
-5 0 -17 5 -25 10 -8 5 -10 10 -5 10 6 0 17 -5 25 -10z m240 0 c8 -5 11 -10 5
-10 -5 0 -17 5 -25 10 -8 5 -10 10 -5 10 6 0 17 -5 25 -10z m80 0 c8 -5 11
-10 5 -10 -5 0 -17 5 -25 10 -8 5 -10 10 -5 10 6 0 17 -5 25 -10z m-960 -10
c0 -5 -4 -10 -10 -10 -5 0 -10 5 -10 10 0 6 5 10 10 10 6 0 10 -4 10 -10z m80
0 c0 -5 -4 -10 -10 -10 -5 0 -10 5 -10 10 0 6 5 10 10 10 6 0 10 -4 10 -10z
m160 0 c0 -5 -4 -10 -10 -10 -5 0 -10 5 -10 10 0 6 5 10 10 10 6 0 10 -4 10
-10z m80 0 c0 -5 -4 -10 -10 -10 -5 0 -10 5 -10 10 0 6 5 10 10 10 6 0 10 -4
10 -10z m160 0 c0 -5 -4 -10 -10 -10 -5 0 -10 5 -10 10 0 6 5 10 10 10 6 0 10
-4 10 -10z m80 0 c0 -5 -4 -10 -10 -10 -5 0 -10 5 -10 10 0 6 5 10 10 10 6 0
10 -4 10 -10z m160 0 c0 -5 -4 -10 -10 -10 -5 0 -10 5 -10 10 0 6 5 10 10 10
6 0 10 -4 10 -10z m80 0 c0 -5 -4 -10 -10 -10 -5 0 -10 5 -10 10 0 6 5 10 10
10 6 0 10 -4 10 -10z m-1040 -30 c0 -5 -4 -10 -10 -10 -5 0 -10 5 -10 10 0 6
5 10 10 10 6 0 10 -4 10 -10z m1280 0 c0 -5 -4 -10 -10 -10 -5 0 -10 5 -10 10
0 6 5 10 10 10 6 0 10 -4 10 -10z m-1226 -162 c-9 -59 -14 -60 -14 -5 0 26 5
47 10 47 6 0 8 -16 4 -42z m45 -5 c-1 -47 -1 -47 -9 -14 -7 31 -4 61 6 61 2 0
4 -21 3 -47z m35 5 c-9 -59 -14 -60 -14 -5 0 26 5 47 10 47 6 0 8 -16 4 -42z
m45 -5 c-1 -47 -1 -47 -9 -14 -7 31 -4 61 6 61 2 0 4 -21 3 -47z m195 5 c-9
-59 -14 -60 -14 -5 0 26 5 47 10 47 6 0 8 -16 4 -42z m45 -5 c-1 -47 -1 -47
-9 -14 -7 31 -4 61 6 61 2 0 4 -21 3 -47z m35 5 c-9 -59 -14 -60 -14 -5 0 26
5 47 10 47 6 0 8 -16 4 -42z m45 -5 c-1 -47 -1 -47 -9 -14 -7 31 -4 61 6 61 2
0 4 -21 3 -47z m275 5 c-9 -59 -14 -60 -14 -5 0 26 5 47 10 47 6 0 8 -16 4
-42z m45 -5 c-1 -47 -1 -47 -9 -14 -7 31 -4 61 6 61 2 0 4 -21 3 -47z m35 5
c-9 -59 -14 -60 -14 -5 0 26 5 47 10 47 6 0 8 -16 4 -42z m45 -5 c-1 -47 -1
-47 -9 -14 -7 31 -4 61 6 61 2 0 4 -21 3 -47z m195 5 c-9 -59 -14 -60 -14 -5
0 26 5 47 10 47 6 0 8 -16 4 -42z m45 -5 c-1 -47 -1 -47 -9 -14 -7 31 -4 61 6
61 2 0 4 -21 3 -47z m35 5 c-9 -59 -14 -60 -14 -5 0 26 5 47 10 47 6 0 8 -16
4 -42z m45 -5 c-1 -47 -1 -47 -9 -14 -7 31 -4 61 6 61 2 0 4 -21 3 -47z m-979
17 c0 -5 -4 -10 -10 -10 -5 0 -10 5 -10 10 0 6 5 10 10 10 6 0 10 -4 10 -10z
m800 0 c0 -5 -4 -10 -10 -10 -5 0 -10 5 -10 10 0 6 5 10 10 10 6 0 10 -4 10
-10z m-1280 -10 c8 -5 11 -10 5 -10 -5 0 -17 5 -25 10 -8 5 -10 10 -5 10 6 0
17 -5 25 -10z m80 0 c8 -5 11 -10 5 -10 -5 0 -17 5 -25 10 -8 5 -10 10 -5 10
6 0 17 -5 25 -10z m80 0 c8 -5 11 -10 5 -10 -5 0 -17 5 -25 10 -8 5 -10 10 -5
10 6 0 17 -5 25 -10z m80 0 c8 -5 11 -10 5 -10 -5 0 -17 5 -25 10 -8 5 -10 10
-5 10 6 0 17 -5 25 -10z m320 0 c8 -5 11 -10 5 -10 -5 0 -17 5 -25 10 -8 5
-10 10 -5 10 6 0 17 -5 25 -10z m240 0 c8 -5 11 -10 5 -10 -5 0 -17 5 -25 10
-8 5 -10 10 -5 10 6 0 17 -5 25 -10z m80 0 c8 -5 11 -10 5 -10 -5 0 -17 5 -25
10 -8 5 -10 10 -5 10 6 0 17 -5 25 -10z m80 0 c8 -5 11 -10 5 -10 -5 0 -17 5
-25 10 -8 5 -10 10 -5 10 6 0 17 -5 25 -10z m240 0 c8 -5 11 -10 5 -10 -5 0
-17 5 -25 10 -8 5 -10 10 -5 10 6 0 17 -5 25 -10z m320 0 c8 -5 11 -10 5 -10
-5 0 -17 5 -25 10 -8 5 -10 10 -5 10 6 0 17 -5 25 -10z m80 0 c8 -5 11 -10 5
-10 -5 0 -17 5 -25 10 -8 5 -10 10 -5 10 6 0 17 -5 25 -10z m80 0 c8 -5 11
-10 5 -10 -5 0 -17 5 -25 10 -8 5 -10 10 -5 10 6 0 17 -5 25 -10z m80 0 c8 -5
11 -10 5 -10 -5 0 -17 5 -25 10 -8 5 -10 10 -5 10 6 0 17 -5 25 -10z m-1440
-10 c0 -5 -4 -10 -10 -10 -5 0 -10 5 -10 10 0 6 5 10 10 10 6 0 10 -4 10 -10z
m80 0 c0 -5 -4 -10 -10 -10 -5 0 -10 5 -10 10 0 6 5 10 10 10 6 0 10 -4 10
-10z m240 0 c0 -5 -4 -10 -10 -10 -5 0 -10 5 -10 10 0 6 5 10 10 10 6 0 10 -4
10 -10z m80 0 c0 -5 -4 -10 -10 -10 -5 0 -10 5 -10 10 0 6 5 10 10 10 6 0 10
-4 10 -10z m320 0 c0 -5 -4 -10 -10 -10 -5 0 -10 5 -10 10 0 6 5 10 10 10 6 0
10 -4 10 -10z m80 0 c0 -5 -4 -10 -10 -10 -5 0 -10 5 -10 10 0 6 5 10 10 10 6
0 10 -4 10 -10z m240 0 c0 -5 -4 -10 -10 -10 -5 0 -10 5 -10 10 0 6 5 10 10
10 6 0 10 -4 10 -10z m80 0 c0 -5 -4 -10 -10 -10 -5 0 -10 5 -10 10 0 6 5 10
10 10 6 0 10 -4 10 -10z m-960 -30 c0 -5 -4 -10 -10 -10 -5 0 -10 5 -10 10 0
6 5 10 10 10 6 0 10 -4 10 -10z m800 0 c0 -5 -4 -10 -10 -10 -5 0 -10 5 -10
10 0 6 5 10 10 10 6 0 10 -4 10 -10z m-872 -147 c-10 -2 -26 -2 -35 0 -10 3
-2 5 17 5 19 0 27 -2 18 -5z m80 0 c-10 -2 -26 -2 -35 0 -10 3 -2 5 17 5 19 0
27 -2 18 -5z m160 0 c-10 -2 -26 -2 -35 0 -10 3 -2 5 17 5 19 0 27 -2 18 -5z
m80 0 c-10 -2 -26 -2 -35 0 -10 3 -2 5 17 5 19 0 27 -2 18 -5z m320 0 c-10 -2
-26 -2 -35 0 -10 3 -2 5 17 5 19 0 27 -2 18 -5z m80 0 c-10 -2 -26 -2 -35 0
-10 3 -2 5 17 5 19 0 27 -2 18 -5z m160 0 c-10 -2 -26 -2 -35 0 -10 3 -2 5 17
5 19 0 27 -2 18 -5z m80 0 c-10 -2 -26 -2 -35 0 -10 3 -2 5 17 5 19 0 27 -2
18 -5z m-1448 -13 c8 -5 11 -10 5 -10 -5 0 -17 5 -25 10 -8 5 -10 10 -5 10 6
0 17 -5 25 -10z m80 0 c8 -5 11 -10 5 -10 -5 0 -17 5 -25 10 -8 5 -10 10 -5
10 6 0 17 -5 25 -10z m80 0 c8 -5 11 -10 5 -10 -5 0 -17 5 -25 10 -8 5 -10 10
-5 10 6 0 17 -5 25 -10z m80 0 c8 -5 11 -10 5 -10 -5 0 -17 5 -25 10 -8 5 -10
10 -5 10 6 0 17 -5 25 -10z m80 0 c8 -5 11 -10 5 -10 -5 0 -17 5 -25 10 -8 5
-10 10 -5 10 6 0 17 -5 25 -10z m80 0 c8 -5 11 -10 5 -10 -5 0 -17 5 -25 10
-8 5 -10 10 -5 10 6 0 17 -5 25 -10z m240 0 c8 -5 11 -10 5 -10 -5 0 -17 5
-25 10 -8 5 -10 10 -5 10 6 0 17 -5 25 -10z m240 0 c8 -5 11 -10 5 -10 -5 0
-17 5 -25 10 -8 5 -10 10 -5 10 6 0 17 -5 25 -10z m80 0 c8 -5 11 -10 5 -10
-5 0 -17 5 -25 10 -8 5 -10 10 -5 10 6 0 17 -5 25 -10z m80 0 c8 -5 11 -10 5
-10 -5 0 -17 5 -25 10 -8 5 -10 10 -5 10 6 0 17 -5 25 -10z m240 0 c8 -5 11
-10 5 -10 -5 0 -17 5 -25 10 -8 5 -10 10 -5 10 6 0 17 -5 25 -10z m240 0 c8
-5 11 -10 5 -10 -5 0 -17 5 -25 10 -8 5 -10 10 -5 10 6 0 17 -5 25 -10z m80 0
c8 -5 11 -10 5 -10 -5 0 -17 5 -25 10 -8 5 -10 10 -5 10 6 0 17 -5 25 -10z
m80 0 c8 -5 11 -10 5 -10 -5 0 -17 5 -25 10 -8 5 -10 10 -5 10 6 0 17 -5 25
-10z m80 0 c8 -5 11 -10 5 -10 -5 0 -17 5 -25 10 -8 5 -10 10 -5 10 6 0 17 -5
25 -10z m80 0 c8 -5 11 -10 5 -10 -5 0 -17 5 -25 10 -8 5 -10 10 -5 10 6 0 17
-5 25 -10z m80 0 c8 -5 11 -10 5 -10 -5 0 -17 5 -25 10 -8 5 -10 10 -5 10 6 0
17 -5 25 -10z m-1432 -17 c-10 -2 -26 -2 -35 0 -10 3 -2 5 17 5 19 0 27 -2 18
-5z m80 0 c-10 -2 -26 -2 -35 0 -10 3 -2 5 17 5 19 0 27 -2 18 -5z m160 0
c-10 -2 -26 -2 -35 0 -10 3 -2 5 17 5 19 0 27 -2 18 -5z m80 0 c-10 -2 -26 -2
-35 0 -10 3 -2 5 17 5 19 0 27 -2 18 -5z m320 0 c-10 -2 -26 -2 -35 0 -10 3
-2 5 17 5 19 0 27 -2 18 -5z m80 0 c-10 -2 -26 -2 -35 0 -10 3 -2 5 17 5 19 0
27 -2 18 -5z m160 0 c-10 -2 -26 -2 -35 0 -10 3 -2 5 17 5 19 0 27 -2 18 -5z
m80 0 c-10 -2 -26 -2 -35 0 -10 3 -2 5 17 5 19 0 27 -2 18 -5z m-880 -170
c-10 -2 -26 -2 -35 0 -10 3 -2 5 17 5 19 0 27 -2 18 -5z m80 0 c-10 -2 -26 -2
-35 0 -10 3 -2 5 17 5 19 0 27 -2 18 -5z m160 0 c-10 -2 -26 -2 -35 0 -10 3
-2 5 17 5 19 0 27 -2 18 -5z m80 0 c-10 -2 -26 -2 -35 0 -10 3 -2 5 17 5 19 0
27 -2 18 -5z m160 0 c-10 -2 -26 -2 -35 0 -10 3 -2 5 17 5 19 0 27 -2 18 -5z
m80 0 c-10 -2 -26 -2 -35 0 -10 3 -2 5 17 5 19 0 27 -2 18 -5z m160 0 c-10 -2
-26 -2 -35 0 -10 3 -2 5 17 5 19 0 27 -2 18 -5z m80 0 c-10 -2 -26 -2 -35 0
-10 3 -2 5 17 5 19 0 27 -2 18 -5z m-1288 -13 c8 -5 11 -10 5 -10 -5 0 -17 5
-25 10 -8 5 -10 10 -5 10 6 0 17 -5 25 -10z m80 0 c8 -5 11 -10 5 -10 -5 0
-17 5 -25 10 -8 5 -10 10 -5 10 6 0 17 -5 25 -10z m80 0 c8 -5 11 -10 5 -10
-5 0 -17 5 -25 10 -8 5 -10 10 -5 10 6 0 17 -5 25 -10z m80 0 c8 -5 11 -10 5
-10 -5 0 -17 5 -25 10 -8 5 -10 10 -5 10 6 0 17 -5 25 -10z m80 0 c8 -5 11
-10 5 -10 -5 0 -17 5 -25 10 -8 5 -10 10 -5 10 6 0 17 -5 25 -10z m80 0 c8 -5
11 -10 5 -10 -5 0 -17 5 -25 10 -8 5 -10 10 -5 10 6 0 17 -5 25 -10z m240 0
c8 -5 11 -10 5 -10 -5 0 -17 5 -25 10 -8 5 -10 10 -5 10 6 0 17 -5 25 -10z
m240 0 c8 -5 11 -10 5 -10 -5 0 -17 5 -25 10 -8 5 -10 10 -5 10 6 0 17 -5 25
-10z m240 0 c8 -5 11 -10 5 -10 -5 0 -17 5 -25 10 -8 5 -10 10 -5 10 6 0 17
-5 25 -10z m240 0 c8 -5 11 -10 5 -10 -5 0 -17 5 -25 10 -8 5 -10 10 -5 10 6
0 17 -5 25 -10z m80 0 c8 -5 11 -10 5 -10 -5 0 -17 5 -25 10 -8 5 -10 10 -5
10 6 0 17 -5 25 -10z m80 0 c8 -5 11 -10 5 -10 -5 0 -17 5 -25 10 -8 5 -10 10
-5 10 6 0 17 -5 25 -10z m80 0 c8 -5 11 -10 5 -10 -5 0 -17 5 -25 10 -8 5 -10
10 -5 10 6 0 17 -5 25 -10z m80 0 c8 -5 11 -10 5 -10 -5 0 -17 5 -25 10 -8 5
-10 10 -5 10 6 0 17 -5 25 -10z m80 0 c8 -5 11 -10 5 -10 -5 0 -17 5 -25 10
-8 5 -10 10 -5 10 6 0 17 -5 25 -10z m-1272 -17 c-10 -2 -26 -2 -35 0 -10 3
-2 5 17 5 19 0 27 -2 18 -5z m80 0 c-10 -2 -26 -2 -35 0 -10 3 -2 5 17 5 19 0
27 -2 18 -5z m160 0 c-10 -2 -26 -2 -35 0 -10 3 -2 5 17 5 19 0 27 -2 18 -5z
m80 0 c-10 -2 -26 -2 -35 0 -10 3 -2 5 17 5 19 0 27 -2 18 -5z m160 0 c-10 -2
-26 -2 -35 0 -10 3 -2 5 17 5 19 0 27 -2 18 -5z m80 0 c-10 -2 -26 -2 -35 0
-10 3 -2 5 17 5 19 0 27 -2 18 -5z m160 0 c-10 -2 -26 -2 -35 0 -10 3 -2 5 17
5 19 0 27 -2 18 -5z m80 0 c-10 -2 -26 -2 -35 0 -10 3 -2 5 17 5 19 0 27 -2
18 -5z m-968 -173 c0 -5 -4 -10 -10 -10 -5 0 -10 5 -10 10 0 6 5 10 10 10 6 0
10 -4 10 -10z m168 3 c-10 -2 -26 -2 -35 0 -10 3 -2 5 17 5 19 0 27 -2 18 -5z
m80 0 c-10 -2 -26 -2 -35 0 -10 3 -2 5 17 5 19 0 27 -2 18 -5z m160 0 c-10 -2
-26 -2 -35 0 -10 3 -2 5 17 5 19 0 27 -2 18 -5z m80 0 c-10 -2 -26 -2 -35 0
-10 3 -2 5 17 5 19 0 27 -2 18 -5z m160 0 c-10 -2 -26 -2 -35 0 -10 3 -2 5 17
5 19 0 27 -2 18 -5z m80 0 c-10 -2 -26 -2 -35 0 -10 3 -2 5 17 5 19 0 27 -2
18 -5z m160 0 c-10 -2 -26 -2 -35 0 -10 3 -2 5 17 5 19 0 27 -2 18 -5z m80 0
c-10 -2 -26 -2 -35 0 -10 3 -2 5 17 5 19 0 27 -2 18 -5z m-888 -13 c8 -5 11
-10 5 -10 -5 0 -17 5 -25 10 -8 5 -10 10 -5 10 6 0 17 -5 25 -10z m240 0 c8
-5 11 -10 5 -10 -5 0 -17 5 -25 10 -8 5 -10 10 -5 10 6 0 17 -5 25 -10z m240
0 c8 -5 11 -10 5 -10 -5 0 -17 5 -25 10 -8 5 -10 10 -5 10 6 0 17 -5 25 -10z
m240 0 c8 -5 11 -10 5 -10 -5 0 -17 5 -25 10 -8 5 -10 10 -5 10 6 0 17 -5 25
-10z m240 0 c8 -5 11 -10 5 -10 -5 0 -17 5 -25 10 -8 5 -10 10 -5 10 6 0 17
-5 25 -10z m80 0 c8 -5 11 -10 5 -10 -5 0 -17 5 -25 10 -8 5 -10 10 -5 10 6 0
17 -5 25 -10z m-952 -17 c-10 -2 -26 -2 -35 0 -10 3 -2 5 17 5 19 0 27 -2 18
-5z m80 0 c-10 -2 -26 -2 -35 0 -10 3 -2 5 17 5 19 0 27 -2 18 -5z m160 0
c-10 -2 -26 -2 -35 0 -10 3 -2 5 17 5 19 0 27 -2 18 -5z m80 0 c-10 -2 -26 -2
-35 0 -10 3 -2 5 17 5 19 0 27 -2 18 -5z m160 0 c-10 -2 -26 -2 -35 0 -10 3
-2 5 17 5 19 0 27 -2 18 -5z m80 0 c-10 -2 -26 -2 -35 0 -10 3 -2 5 17 5 19 0
27 -2 18 -5z m160 0 c-10 -2 -26 -2 -35 0 -10 3 -2 5 17 5 19 0 27 -2 18 -5z
m80 0 c-10 -2 -26 -2 -35 0 -10 3 -2 5 17 5 19 0 27 -2 18 -5z m-968 -23 c0
-5 -4 -10 -10 -10 -5 0 -10 5 -10 10 0 6 5 10 10 10 6 0 10 -4 10 -10z m-557
-117 c-8 -3 -13 -24 -13 -53 0 -29 5 -50 13 -53 7 -3 5 -6 -5 -6 -15 -1 -18 8
-18 59 0 51 3 60 18 59 10 0 12 -3 5 -6z m397 -53 c0 -51 -3 -60 -17 -59 -11
0 -13 3 -5 6 7 3 12 24 12 53 0 29 -5 50 -12 53 -8 3 -6 6 5 6 14 1 17 -8 17
-59z m-302 7 c2 -27 -1 -39 -13 -43 -35 -14 -61 46 -33 74 23 23 43 9 46 -31z
m222 4 c0 -22 5 -42 13 -44 6 -3 -1 -6 -18 -6 -21 0 -26 2 -16 8 9 6 12 21 9
45 -2 20 0 36 4 36 4 0 8 -18 8 -39z m-160 -41 c0 -5 -4 -10 -10 -10 -5 0 -10
5 -10 10 0 6 5 10 10 10 6 0 10 -4 10 -10z m190 -150 l0 -100 -40 0 -40 0 0
100 0 100 40 0 40 0 0 -100z m-337 -8 c3 -4 -7 -16 -22 -26 l-26 -20 19 22
c19 22 19 23 0 38 -18 14 -18 15 3 4 12 -5 24 -13 26 -18z m80 0 c3 -4 -7 -16
-22 -26 l-26 -20 19 22 c19 22 19 23 0 38 -18 14 -18 15 3 4 12 -5 24 -13 26
-18z m80 0 c3 -4 -7 -16 -22 -26 l-26 -20 19 22 c19 22 19 23 0 38 -18 14 -18
15 3 4 12 -5 24 -13 26 -18z"/>
<path d="M1354 4955 c-7 -18 3 -35 22 -35 8 0 14 10 14 25 0 27 -27 35 -36 10z"/>
<path d="M1435 4960 c-3 -5 3 -10 14 -10 12 0 21 5 21 10 0 6 -6 10 -14 10 -8
0 -18 -4 -21 -10z"/>
<path d="M1675 4960 c-3 -5 3 -10 14 -10 12 0 21 5 21 10 0 6 -6 10 -14 10 -8
0 -18 -4 -21 -10z"/>
<path d="M1835 4960 c-3 -5 3 -10 14 -10 12 0 21 5 21 10 0 6 -6 10 -14 10 -8
0 -18 -4 -21 -10z"/>
<path d="M2235 4960 c-3 -5 3 -10 14 -10 12 0 21 5 21 10 0 6 -6 10 -14 10 -8
0 -18 -4 -21 -10z"/>
<path d="M2954 4955 c-7 -18 3 -35 22 -35 8 0 14 10 14 25 0 27 -27 35 -36 10z"/>
<path d="M5034 3555 c-7 -18 3 -35 22 -35 8 0 14 10 14 25 0 27 -27 35 -36 10z"/>
<path d="M5270 3556 c0 -39 18 -48 41 -20 15 18 2 47 -25 52 -12 3 -16 -4 -16
-32z"/>
<path d="M6154 3576 c-9 -24 0 -51 19 -54 14 -3 17 4 17 32 0 26 -4 36 -15 36
-9 0 -18 -6 -21 -14z"/>
<path d="M3755 3560 c-3 -5 3 -10 14 -10 12 0 21 5 21 10 0 6 -6 10 -14 10 -8
0 -18 -4 -21 -10z"/>
<path d="M3834 3555 c-7 -18 3 -35 22 -35 8 0 14 10 14 25 0 27 -27 35 -36 10z"/>
<path d="M3995 3560 c-3 -5 3 -10 14 -10 12 0 21 5 21 10 0 6 -6 10 -14 10 -8
0 -18 -4 -21 -10z"/>
<path d="M4714 3555 c-7 -18 3 -35 22 -35 8 0 14 10 14 25 0 27 -27 35 -36 10z"/>
<path d="M4875 3560 c-3 -5 3 -10 14 -10 12 0 21 5 21 10 0 6 -6 10 -14 10 -8
0 -18 -4 -21 -10z"/>
<path d="M5514 3555 c-7 -18 3 -35 22 -35 8 0 14 10 14 25 0 27 -27 35 -36 10z"/>
<path d="M6234 3176 c-9 -24 0 -51 19 -54 14 -3 17 4 17 32 0 26 -4 36 -15 36
-9 0 -18 -6 -21 -14z"/>
<path d="M3754 3155 c-7 -18 3 -35 22 -35 8 0 14 10 14 25 0 27 -27 35 -36 10z"/>
<path d="M3835 3160 c-3 -5 3 -10 14 -10 12 0 21 5 21 10 0 6 -6 10 -14 10 -8
0 -18 -4 -21 -10z"/>
<path d="M4075 3160 c-3 -5 3 -10 14 -10 12 0 21 5 21 10 0 6 -6 10 -14 10 -8
0 -18 -4 -21 -10z"/>
<path d="M4235 3160 c-3 -5 3 -10 14 -10 12 0 21 5 21 10 0 6 -6 10 -14 10 -8
0 -18 -4 -21 -10z"/>
<path d="M4635 3160 c-3 -5 3 -10 14 -10 12 0 21 5 21 10 0 6 -6 10 -14 10 -8
0 -18 -4 -21 -10z"/>
<path d="M5354 3155 c-7 -18 3 -35 22 -35 8 0 14 10 14 25 0 27 -27 35 -36 10z"/>
<path d="M5914 2955 c-7 -18 3 -35 22 -35 8 0 14 10 14 25 0 27 -27 35 -36 10z"/>
<path d="M6394 2576 c-9 -24 0 -51 19 -54 14 -3 17 4 17 32 0 26 -4 36 -15 36
-9 0 -18 -6 -21 -14z"/>
<path d="M154 376 c-9 -24 0 -51 19 -54 14 -3 17 4 17 32 0 26 -4 36 -15 36
-9 0 -18 -6 -21 -14z"/>
</g>
</svg>
